<svg width="278" height="76" viewBox="0 0 278 76" fill="none" xmlns="http://www.w3.org/2000/svg">
<path d="M74.9346 7.94177C74.9346 6.99766 75.2745 6.19517 75.9448 5.52485C76.6151 4.85453 77.4176 4.51465 78.3617 4.51465C79.3058 4.51465 80.1083 4.85453 80.7786 5.52485C81.4489 6.19517 81.7888 6.99766 81.7888 7.94177L81.7888 49.0578C81.7888 53.7973 83.4599 57.8381 86.8021 61.1802C90.1442 64.5224 94.185 66.1935 98.9245 66.1935C103.664 66.1935 107.705 64.5224 111.047 61.1802C114.389 57.8381 116.06 53.7973 116.06 49.0578L116.06 7.94178C116.06 6.99767 116.391 6.19517 117.07 5.52485C117.741 4.85453 118.543 4.51465 119.487 4.51465C120.431 4.51465 121.234 4.85453 121.904 5.52485C122.574 6.19517 122.914 6.99767 122.914 7.94178L122.914 49.0578C122.914 55.6855 120.573 61.3313 115.89 66.0141C111.207 70.6969 105.552 73.0383 98.9339 73.0383C92.3062 73.0383 86.6604 70.6969 81.9776 66.0141C77.2949 61.3313 74.9535 55.6761 74.9535 49.0578L74.9534 7.94177L74.9346 7.94177Z" fill="#1A1A18"/>
<path d="M136.605 32.2686C136.662 32.212 136.719 32.1553 136.775 32.0987C141.458 27.4159 147.113 25.0745 153.731 25.0745C160.359 25.0745 166.005 27.4159 170.688 32.0987C175.37 36.7815 177.712 42.4367 177.712 49.0549C177.712 55.6826 175.37 61.3284 170.688 66.0112C166.005 70.694 160.35 73.0354 153.731 73.0354C147.104 73.0354 141.458 70.694 136.775 66.0112C132.092 61.3284 129.751 55.6731 129.751 49.0549L129.751 7.85388C129.751 6.90977 130.091 6.10728 130.761 5.43696C131.431 4.76664 132.234 4.42676 133.178 4.42676C134.122 4.42676 134.925 4.76664 135.595 5.43696C136.265 6.10728 136.605 6.91921 136.605 7.85388L136.605 32.2686ZM153.741 66.1811C158.48 66.1811 162.521 64.51 165.863 61.1679C169.205 57.8257 170.876 53.7849 170.876 49.0455C170.876 44.306 169.205 40.2652 165.863 36.9231C162.521 33.5809 158.48 31.9099 153.741 31.9099C149.001 31.9099 144.961 33.5809 141.618 36.9231C138.276 40.2652 136.605 44.306 136.605 49.0455C136.605 53.7849 138.276 57.8257 141.618 61.1679C144.961 64.51 149.001 66.1811 153.741 66.1811Z" fill="#1A1A18"/>
<path d="M195.717 14.7921C195.717 15.9628 195.292 16.973 194.451 17.8133C193.611 18.6535 192.601 19.0784 191.43 19.0784C190.26 19.0784 189.249 18.6535 188.409 17.8133C187.569 16.973 187.144 15.9628 187.144 14.7921C187.144 13.6214 187.569 12.6112 188.409 11.771C189.249 10.9307 190.26 10.5059 191.43 10.5059C192.601 10.5059 193.611 10.9307 194.451 11.771C195.292 12.6112 195.717 13.6214 195.717 14.7921ZM188.003 28.4912C188.003 27.5471 188.343 26.7446 189.013 26.0743C189.684 25.4039 190.496 25.0641 191.43 25.0641C192.374 25.0641 193.177 25.4039 193.847 26.0743C194.518 26.7446 194.857 27.5565 194.857 28.4912L194.857 69.6072C194.857 70.5514 194.518 71.3539 193.847 72.0242C193.177 72.6945 192.365 73.0344 191.43 73.0344C190.486 73.0344 189.684 72.6945 189.013 72.0242C188.343 71.3539 188.003 70.5514 188.003 69.6072L188.003 28.4912Z" fill="#1A1A18"/>
<path d="M216.269 14.7921C216.269 15.9628 215.844 16.973 215.004 17.8133C214.164 18.6535 213.154 19.0784 211.983 19.0784C210.812 19.0784 209.802 18.6535 208.962 17.8133C208.122 16.973 207.697 15.9628 207.697 14.7921C207.697 13.6214 208.122 12.6112 208.962 11.771C209.802 10.9307 210.812 10.5059 211.983 10.5059C213.154 10.5059 214.164 10.9307 215.004 11.771C215.844 12.6112 216.269 13.6214 216.269 14.7921ZM208.556 28.4912C208.556 27.5471 208.896 26.7446 209.566 26.0743C210.236 25.4039 211.048 25.0641 211.983 25.0641C212.927 25.0641 213.73 25.4039 214.4 26.0743C215.07 26.7446 215.41 27.5565 215.41 28.4912L215.41 69.6073C215.41 70.5514 215.07 71.3539 214.4 72.0242C213.73 72.6945 212.918 73.0344 211.983 73.0344C211.039 73.0344 210.236 72.6945 209.566 72.0242C208.896 71.3539 208.556 70.5514 208.556 69.6073L208.556 28.4912Z" fill="#1A1A18"/>
<path d="M225.687 7.93884C225.687 6.99473 226.027 6.19224 226.698 5.52192C227.368 4.8516 228.171 4.51172 229.115 4.51172C230.059 4.51172 230.861 4.8516 231.532 5.52192C232.202 6.19224 232.542 6.99473 232.542 7.93884L232.542 66.1811L235.969 66.1811C236.913 66.1811 237.715 66.521 238.386 67.1913C239.056 67.8616 239.396 68.6736 239.396 69.6082C239.396 70.5429 239.056 71.3548 238.386 72.0252C237.715 72.6955 236.913 73.0354 235.969 73.0354L229.115 73.0354C228.171 73.0354 227.368 72.6955 226.698 72.0252C226.027 71.3548 225.687 70.5523 225.687 69.6082L225.687 7.93884Z" fill="#1A1A18"/>
<path d="M246.242 7.93884C246.242 6.99473 246.582 6.19224 247.253 5.52192C247.923 4.8516 248.725 4.51172 249.669 4.51172C250.614 4.51172 251.416 4.8516 252.086 5.52192C252.757 6.19224 253.097 6.99473 253.097 7.93884L253.097 66.1811L256.524 66.1811C257.468 66.1811 258.27 66.521 258.941 67.1913C259.611 67.8616 259.951 68.6736 259.951 69.6082C259.951 70.5429 259.611 71.3548 258.941 72.0252C258.27 72.6955 257.468 73.0354 256.524 73.0354L249.669 73.0354C248.725 73.0354 247.923 72.6955 247.253 72.0252C246.582 71.3548 246.242 70.5523 246.242 69.6082L246.242 7.93884Z" fill="#1A1A18"/>
<path d="M277.938 14.7926C277.938 15.9633 277.513 16.9735 276.673 17.8138C275.833 18.654 274.822 19.0789 273.652 19.0789C272.481 19.0789 271.471 18.654 270.63 17.8138C269.79 16.9735 269.365 15.9633 269.365 14.7926C269.365 13.6219 269.79 12.6117 270.63 11.7715C271.471 10.9312 272.481 10.5063 273.652 10.5063C274.822 10.5063 275.833 10.9312 276.673 11.7715C277.522 12.6117 277.938 13.6219 277.938 14.7926ZM270.234 28.4917C270.234 27.5476 270.574 26.7451 271.244 26.0747C271.914 25.4044 272.726 25.0645 273.661 25.0645C274.605 25.0645 275.408 25.4044 276.078 26.0747C276.748 26.7451 277.088 27.557 277.088 28.4917L277.088 69.6077C277.088 70.5518 276.748 71.3543 276.078 72.0247C275.408 72.695 274.596 73.0349 273.661 73.0349C272.717 73.0349 271.914 72.695 271.244 72.0247C270.574 71.3543 270.234 70.5518 270.234 69.6077L270.234 28.4917Z" fill="#1A1A18"/>
<path fill-rule="evenodd" clip-rule="evenodd" d="M3.53168 0L55.1463 0C55.7127 0 56.1659 0.453174 56.1659 1.01964H56.7701C57.4027 1.01964 57.9125 1.52946 57.9125 2.16202C57.9125 2.79457 57.4027 3.30439 56.7701 3.30439L55.0896 3.30439C55.0896 3.12501 55.0991 2.93619 55.0991 2.75681L3.57889 2.75681C3.57889 2.94563 3.57889 3.12501 3.58833 3.30439H1.39799C0.765436 3.30439 0.255615 2.79457 0.255615 2.16202C0.255615 1.52946 0.765436 1.01964 1.39799 1.01964H2.51204C2.5026 0.462615 2.96522 0 3.53168 0Z" fill="#FCC400"/>
<path fill-rule="evenodd" clip-rule="evenodd" d="M3.57922 4.88184L55.09 4.88183C55.09 5.07065 55.09 5.25003 55.0805 5.42942C54.7879 19.4023 43.3735 30.6372 29.3346 30.6372C15.2956 30.6372 3.88134 19.4023 3.58866 5.42942C3.57922 5.25004 3.57922 5.06122 3.57922 4.88184ZM29.9011 27.4933C41.9196 27.4933 51.6628 17.7501 51.6628 5.73153L48.3112 5.73153C48.3112 17.1836 39.4555 26.5681 28.2205 27.4178C28.787 27.465 29.3346 27.4933 29.9011 27.4933Z" fill="#FCC400"/>
<path fill-rule="evenodd" clip-rule="evenodd" d="M25.9827 33.3286C25.9827 31.4782 27.4838 29.9771 29.3343 29.9771C31.1847 29.9771 32.6859 31.4782 32.6859 33.3286C32.6859 35.1791 31.1847 36.6802 29.3343 36.6802C27.4838 36.6802 25.9827 35.1791 25.9827 33.3286Z" fill="#FCC400"/>
<path fill-rule="evenodd" clip-rule="evenodd" d="M55.3033 75.1603L3.68873 75.1603C3.12227 75.1603 2.66909 74.7072 2.66909 74.1407L2.06486 74.1407C1.43231 74.1407 0.922485 73.6309 0.922485 72.9983C0.922485 72.3658 1.43231 71.856 2.06486 71.856L3.74538 71.856C3.74538 72.0353 3.73594 72.2242 3.73594 72.4035L55.2467 72.4035C55.2467 72.2147 55.2467 72.0353 55.2372 71.856L57.4276 71.856C58.0601 71.856 58.57 72.3658 58.57 72.9983C58.57 73.6309 58.0601 74.1407 57.4276 74.1407L56.3135 74.1407C56.323 74.6977 55.8604 75.1603 55.3033 75.1603Z" fill="#FCC400"/>
<path fill-rule="evenodd" clip-rule="evenodd" d="M55.2443 70.2793L3.73352 70.2793C3.73352 70.0905 3.73352 69.9111 3.74296 69.7317C4.03564 55.7589 15.45 44.5239 29.4889 44.5239C43.5278 44.5239 54.9422 55.7589 55.2348 69.7317C55.2443 69.9111 55.2443 70.0905 55.2443 70.2793ZM28.9224 47.6584C16.9039 47.6584 7.16065 57.4016 7.16065 69.4202L10.5122 69.4202C10.5122 57.9681 19.368 48.5836 30.6029 47.7339C30.0459 47.6867 29.4889 47.6584 28.9224 47.6584Z" fill="#FCC400"/>
<path fill-rule="evenodd" clip-rule="evenodd" d="M32.8402 41.8238C32.8402 43.6742 31.339 45.1754 29.4886 45.1754C27.6381 45.1754 26.137 43.6742 26.137 41.8238C26.137 39.9733 27.6381 38.4722 29.4886 38.4722C31.339 38.4816 32.8402 39.9827 32.8402 41.8238Z" fill="#FCC400"/>
</svg>
