<svg width="50" height="50" viewBox="0 0 50 50" fill="none" xmlns="http://www.w3.org/2000/svg">
<path fill-rule="evenodd" clip-rule="evenodd" d="M24.9998 4.16675C13.4998 4.16675 4.1665 13.5001 4.1665 25.0001C4.1665 36.5001 13.4998 45.8334 24.9998 45.8334C36.4998 45.8334 45.8332 36.5001 45.8332 25.0001C45.8332 13.5001 36.4998 4.16675 24.9998 4.16675ZM14.7293 38.0834C15.6252 36.2084 21.0835 34.3751 25.0002 34.3751C28.9168 34.3751 34.396 36.2084 35.271 38.0834C32.4377 40.3334 28.8752 41.6667 25.0002 41.6667C21.1252 41.6667 17.5627 40.3334 14.7293 38.0834ZM24.9998 30.2084C28.0415 30.2084 35.2707 31.4376 38.2498 35.0626C40.3748 32.2709 41.6665 28.7917 41.6665 25.0001C41.6665 15.8126 34.1873 8.33342 24.9998 8.33342C15.8123 8.33342 8.33317 15.8126 8.33317 25.0001C8.33317 28.7917 9.62484 32.2709 11.7498 35.0626C14.729 31.4376 21.9582 30.2084 24.9998 30.2084ZM24.9998 12.5001C20.9582 12.5001 17.7082 15.7501 17.7082 19.7917C17.7082 23.8334 20.9582 27.0834 24.9998 27.0834C29.0415 27.0834 32.2915 23.8334 32.2915 19.7917C32.2915 15.7501 29.0415 12.5001 24.9998 12.5001ZM21.8748 19.7917C21.8748 21.5209 23.2707 22.9167 24.9998 22.9167C26.729 22.9167 28.1248 21.5209 28.1248 19.7917C28.1248 18.0626 26.729 16.6667 24.9998 16.6667C23.2707 16.6667 21.8748 18.0626 21.8748 19.7917Z" fill="#FAC505"/>
</svg>
