<svg width="283" height="283" viewBox="0 0 283 283" fill="none" xmlns="http://www.w3.org/2000/svg">
<path d="M141.499 141.494C144.55 141.494 147.027 139.017 147.027 135.966C147.027 132.915 144.55 130.439 141.499 130.439C138.449 130.439 135.972 132.915 135.972 135.966C135.972 139.017 138.449 141.494 141.499 141.494Z" fill="black"/>
<path d="M260.89 97.2749H228.203L177.922 28.0988C173.405 20.3584 163.456 17.6034 155.553 21.9799C147.543 26.4298 144.663 36.5194 149.115 44.5319C149.242 44.7586 149.383 44.9767 149.54 45.184L188.979 97.2749H94.0208L133.459 45.184C133.615 44.9767 133.757 44.7586 133.885 44.5319C138.326 36.5388 135.478 26.4406 127.44 21.9756C119.554 17.6077 109.605 20.3606 105.08 28.0945L54.7962 97.2749H22.1093C9.91897 97.2749 0 107.194 0 119.384C0 128.999 6.23984 137.37 15.0296 140.332C15.9667 141.057 17.1369 141.494 18.4108 141.494C18.6655 141.494 18.9052 141.509 19.1557 141.543C21.535 141.863 23.4199 143.668 23.8517 146.03L42.6555 249.482C44.0913 257.369 50.9529 263.095 58.9719 263.095H224.028C232.047 263.095 238.908 257.369 240.344 249.48L259.148 146.032C259.58 143.668 261.467 141.863 263.855 141.543C264.096 141.509 264.336 141.494 264.589 141.494C265.871 141.494 267.05 141.053 267.987 140.319C276.783 137.337 282.999 128.982 282.999 119.384C282.999 107.194 273.08 97.2749 260.89 97.2749V97.2749ZM158.628 38.8728C157.365 36.2582 158.345 33.0735 160.914 31.6484C163.59 30.1651 166.962 31.1216 168.437 33.7795C168.545 33.9781 168.668 34.1681 168.8 34.3495L214.536 97.2749H202.842L158.628 38.8728ZM114.2 34.3517C114.332 34.1703 114.45 33.9824 114.56 33.7881C116.039 31.1281 119.414 30.1694 122.078 31.6441C124.652 33.0735 125.637 36.2538 124.371 38.8728L80.1571 97.2749H68.4634L114.2 34.3517ZM260.89 130.439H163.609C160.556 130.439 158.082 132.913 158.082 135.966C158.082 139.019 160.556 141.437 163.609 141.437H248.95C248.661 142.262 248.432 143.117 248.272 143.998L229.466 247.502C228.989 250.132 226.701 252.04 224.028 252.04H58.9719C56.2968 252.04 54.0102 250.132 53.5309 247.504L34.7272 144.052C34.5674 143.171 34.3386 142.316 34.0492 141.494H119.39C122.443 141.494 124.918 139.019 124.918 135.966C124.918 132.913 122.443 130.439 119.39 130.439H22.1093C15.9623 130.439 11.0547 125.43 11.0547 119.384C11.0547 113.289 16.0142 108.33 22.1093 108.33H260.89C266.985 108.33 271.945 113.289 271.945 119.384C271.945 125.523 266.923 130.439 260.89 130.439Z" fill="black"/>
<path d="M141.5 158.076C132.356 158.076 124.918 165.514 124.918 174.658V218.876C124.918 228.02 132.356 235.458 141.5 235.458C150.644 235.458 158.082 228.02 158.082 218.876V174.658C158.082 165.497 150.661 158.076 141.5 158.076V158.076ZM147.027 218.876C147.027 221.925 144.549 224.404 141.5 224.404C138.451 224.404 135.973 221.925 135.973 218.876V174.658C135.973 171.609 138.451 169.13 141.5 169.13C144.551 169.13 147.027 171.607 147.027 174.658V218.876Z" fill="#FAC505"/>
<path d="M196.773 235.458C205.917 235.458 213.355 228.02 213.355 218.876V174.658C213.355 165.497 205.934 158.076 196.773 158.076C187.629 158.076 180.191 165.514 180.191 174.658V218.876C180.191 228.02 187.629 235.458 196.773 235.458ZM191.246 174.658C191.246 171.609 193.724 169.13 196.773 169.13C199.824 169.13 202.3 171.607 202.3 174.658V218.876C202.3 221.925 199.822 224.404 196.773 224.404C193.724 224.404 191.246 221.925 191.246 218.876V174.658Z" fill="#FAC505"/>
<path d="M86.2265 158.076C77.0827 158.076 69.6445 165.514 69.6445 174.658V218.876C69.6445 228.02 77.0827 235.458 86.2265 235.458C95.3704 235.458 102.809 228.02 102.809 218.876V174.658C102.809 165.497 95.3877 158.076 86.2265 158.076V158.076ZM91.7539 218.876C91.7539 221.925 89.2752 224.404 86.2265 224.404C83.1779 224.404 80.6992 221.925 80.6992 218.876V174.658C80.6992 171.609 83.1779 169.13 86.2265 169.13C89.2774 169.13 91.7539 171.605 91.7539 174.658V218.876Z" fill="#FAC505"/>
</svg>
