<svg width="242" height="242" viewBox="0 0 242 242" fill="none" xmlns="http://www.w3.org/2000/svg">
<path d="M188.813 28.5175C181.194 27.5314 173.583 28.1184 166.133 30.2642C155.443 16.1619 138.789 7.83472 120.998 7.83472C103.207 7.83472 86.5531 16.1672 75.8637 30.2642C68.4134 28.1256 60.8021 27.535 53.1837 28.5175C25.2206 32.1415 3.95445 56.0725 3.71643 84.184C3.49451 110.484 21.1367 133.286 46.6193 139.629C52.67 141.132 57.1334 146.313 57.724 152.521L61.1135 188.124H61.1099L63.0481 208.463C63.8713 217.141 74.8561 223.099 79.4752 225.234C80.1355 225.538 80.6653 225.764 81.016 225.91C93.7242 231.26 107.361 233.933 120.998 233.933C134.632 233.933 148.256 231.26 160.945 225.918C163.783 224.745 177.991 218.38 178.938 208.463L180.876 188.124H180.87L184.26 152.521C184.851 146.313 189.316 141.132 195.366 139.629C220.861 133.283 238.507 110.484 238.285 84.184C238.04 56.0725 216.776 32.1415 188.813 28.5175ZM157.834 218.457C134.42 228.316 107.567 228.321 84.1371 218.448C79.094 216.345 71.463 211.475 71.1032 207.697L70.6021 202.448C86.5979 210.181 103.512 214.097 120.995 214.097C138.478 214.097 155.391 210.181 171.387 202.448L170.886 207.697C170.533 211.475 162.897 216.348 157.834 218.457ZM193.423 131.774C184.052 134.108 177.137 142.139 176.219 151.752L172.303 192.851C156.111 201.55 138.866 206.003 120.998 206.003C103.131 206.003 85.8856 201.55 69.6912 192.851L65.7773 151.752C64.8592 142.136 57.9441 134.108 48.5736 131.774C26.7329 126.339 11.6123 106.796 11.802 84.252C12.0078 60.1564 30.2441 39.649 54.2234 36.5422C56.2618 36.2791 58.3038 36.1413 60.3422 36.1413C65.652 36.1413 70.9422 37.0397 76.1267 38.824L79.0546 39.8316L80.7941 37.267C89.8497 23.9092 104.879 15.9256 120.998 15.9256C137.119 15.9256 152.149 23.9092 161.204 37.2706L162.942 39.8351L165.871 38.8276C173.046 36.3597 180.414 35.5919 187.775 36.5458C211.749 39.649 229.989 60.1582 230.196 84.2538C230.384 106.8 215.264 126.342 193.423 131.774Z" fill="black"/>
<path d="M80.0528 145.375C77.8372 145.649 76.2641 147.673 76.5433 149.888L80.5879 182.243C80.842 184.289 82.5851 185.785 84.5949 185.785C84.7649 185.785 84.9314 185.772 85.0996 185.753C87.317 185.479 88.89 183.455 88.6109 181.239L84.5663 148.884C84.2871 146.665 82.2451 145.119 80.0528 145.375Z" fill="#FAC505"/>
<path d="M108.864 153.432C106.632 153.432 104.819 155.239 104.819 157.476V189.831C104.819 192.066 106.632 193.874 108.864 193.874C111.097 193.874 112.909 192.066 112.909 189.831V157.476C112.909 155.239 111.097 153.432 108.864 153.432Z" fill="#FAC505"/>
<path d="M161.943 145.375C159.747 145.119 157.705 146.665 157.43 148.884L153.385 181.239C153.109 183.457 154.679 185.479 156.894 185.753C157.064 185.772 157.234 185.785 157.401 185.785C159.411 185.785 161.154 184.289 161.408 182.243L165.452 149.888C165.732 147.673 164.159 145.649 161.943 145.375Z" fill="#FAC505"/>
<path d="M133.131 153.432C130.899 153.432 129.086 155.239 129.086 157.476V189.831C129.086 192.066 130.899 193.874 133.131 193.874C135.364 193.874 137.176 192.066 137.176 189.831V157.476C137.176 155.239 135.364 153.432 133.131 153.432Z" fill="#FAC505"/>
<path d="M68.4673 48.2781C34.704 47.9918 28.1324 75.4449 28.0751 75.7241C27.5937 77.9038 28.9771 80.0586 31.1569 80.5364C31.4486 80.6008 31.7439 80.6295 32.0267 80.6295C33.8843 80.6295 35.5612 79.3427 35.9746 77.4511C36.0229 77.2363 40.8729 55.8984 68.3814 56.3637C70.5451 56.2134 72.4457 54.592 72.4708 52.3639C72.494 50.134 70.699 48.3032 68.4673 48.2781Z" fill="#FAC505"/>
<path d="M98.3061 32.9426C96.5379 34.3081 96.2104 36.8494 97.5777 38.6157C98.9414 40.3839 101.484 40.7025 103.251 39.3477C103.417 39.2135 120.326 26.4784 138.906 39.4569C139.609 39.9508 140.42 40.1888 141.22 40.1888C142.498 40.1888 143.751 39.5857 144.54 38.4583C145.818 36.6292 145.374 34.1058 143.541 32.828C124.813 19.7529 105.764 27.1907 98.3061 32.9426Z" fill="#FAC505"/>
</svg>
