<svg width="164" height="166" viewBox="0 0 164 166" fill="none" xmlns="http://www.w3.org/2000/svg">
<path d="M48.6398 95.9724C56.2247 95.8745 63.7603 93.9556 70.4313 90.4234C70.4494 90.414 70.4857 90.4011 70.5234 90.4186C73.9463 92.0355 80.5453 94.635 86.2859 93.8762C87.7073 93.6884 88.9192 92.7434 89.4484 91.4103C89.9763 90.0807 89.7438 88.5666 88.8413 87.4588C87.5555 85.8795 85.672 83.2686 84.0022 79.7996C83.9909 79.7763 84.0006 79.728 84.036 79.6874C91.6909 70.9941 95.9388 59.8239 95.9971 48.234C96.0526 37.163 92.2318 26.3333 85.2378 17.7405C84.3901 16.6989 82.8581 16.5416 81.8162 17.3893C80.7746 18.2374 80.6173 19.7693 81.465 20.8109C87.7491 28.532 91.1827 38.2624 91.1328 48.2094C91.0802 58.624 87.2633 68.6612 80.3851 76.4724C79.0565 77.9813 78.7558 80.1149 79.6188 81.9088C81.0713 84.926 82.672 87.3709 83.9945 89.1487C79.6441 89.1084 74.6954 87.0096 72.6011 86.0205C71.1953 85.3561 69.533 85.3947 68.1551 86.1243C62.0775 89.3423 55.4905 91.0192 48.5766 91.1084C37.2189 91.2579 26.3691 86.8666 18.0367 78.7515C9.70339 70.6358 5.03423 59.9108 4.88895 48.5528C4.7401 36.9221 9.15501 25.9617 17.32 17.6916C25.4876 9.41954 36.3865 4.86389 48.0094 4.86389C57.3305 4.86389 66.209 7.80295 73.6852 13.3629C74.7625 14.1646 76.2867 13.9408 77.0883 12.8629C77.89 11.7849 77.6659 10.2614 76.5883 9.45976C68.2663 3.27064 58.3841 -0.000488281 48.0094 -0.000488281C35.0753 -0.000488281 22.9471 5.06917 13.8592 14.2742C4.77285 23.4776 -0.14017 35.6732 0.0255436 48.6151C0.187365 61.2732 5.37896 73.2136 14.6437 82.2364C23.7566 91.1116 35.5884 95.9766 48.025 95.9763C48.2289 95.9763 48.4352 95.975 48.6398 95.9724Z" fill="#FAC505"/>
<path d="M62.9961 47.9666C62.9961 52.7065 66.8523 56.5626 71.5921 56.5626C76.332 56.5626 80.1881 52.7065 80.1881 47.9666C80.1881 43.2268 76.332 39.3706 71.5921 39.3706C66.8523 39.3706 62.9961 43.2268 62.9961 47.9666ZM75.3234 47.9666C75.3234 50.0242 73.6494 51.6982 71.5918 51.6982C69.5341 51.6982 67.8601 50.0242 67.8601 47.9666C67.8601 45.909 69.5341 44.235 71.5918 44.235C73.6494 44.235 75.3234 45.909 75.3234 47.9666Z" fill="black"/>
<path d="M39.4141 47.9666C39.4141 52.7065 43.2702 56.5626 48.0101 56.5626C52.7499 56.5626 56.6061 52.7065 56.6061 47.9666C56.6061 43.2268 52.7499 39.3706 48.0101 39.3706C43.2702 39.3706 39.4141 43.2268 39.4141 47.9666ZM51.7417 47.9666C51.7417 50.0242 50.0677 51.6982 48.0101 51.6982C45.9524 51.6982 44.2784 50.0242 44.2784 47.9666C44.2784 45.909 45.9524 44.235 48.0101 44.235C50.0677 44.235 51.7417 45.909 51.7417 47.9666Z" fill="black"/>
<path d="M15.832 47.9666C15.832 52.7065 19.6882 56.5626 24.428 56.5626C29.1679 56.5626 33.024 52.7065 33.024 47.9666C33.024 43.2268 29.1679 39.3706 24.428 39.3706C19.6882 39.3706 15.832 43.2268 15.832 47.9666ZM28.1597 47.9666C28.1597 50.0242 26.4857 51.6982 24.428 51.6982C22.3704 51.6982 20.6964 50.0242 20.6964 47.9666C20.6964 45.909 22.3704 44.235 24.428 44.235C26.4857 44.235 28.1597 45.909 28.1597 47.9666Z" fill="black"/>
<path d="M161.803 54.4834C160.469 54.3429 159.269 55.3103 159.128 56.6461C158.58 61.8237 157.396 67.4664 155.61 73.4165C148.615 96.7123 137.726 116.313 123.245 131.676C119.2 135.967 114.714 140.082 110.114 143.735C108.508 145.01 106.872 146.245 105.207 147.441C101.772 149.91 98.2154 152.211 94.5597 154.34C85.1653 159.809 74.6177 162.182 66.3434 160.684C64.9943 160.44 63.6955 160.137 62.4408 159.779C67.8679 155.723 72.6528 151.6 77.9034 146.862C83.8824 141.463 89.1164 136.461 93.9046 131.571C93.9111 131.564 93.9166 131.557 93.9231 131.55C93.9302 131.542 93.938 131.536 93.9451 131.528L96.7701 128.501C114.432 111.562 127.584 91.2205 135.867 68.0261C135.867 68.0261 137.392 63.6732 137.396 63.6634C141.808 50.8983 145.862 37.3536 149.466 23.3475C152.466 26.4665 154.874 30.1683 156.645 34.3993C157.786 37.1243 158.593 40.1487 159.044 43.3887C159.23 44.7193 160.458 45.6474 161.789 45.4622C163.12 45.2767 164.048 44.0483 163.862 42.7177C163.353 39.0633 162.435 35.6326 161.133 32.5213C160.811 31.7515 160.467 30.991 160.101 30.2406C156.834 23.5346 151.948 18.5619 146.025 14.1911C140.176 9.87474 132.433 6.55886 125.287 9.69217C122.954 10.7153 120.962 12.3478 119.374 14.5342C118.385 15.8793 117.564 17.4385 116.934 19.1628C116.791 19.5503 111.999 34.7207 110.199 42.2066C108.796 48.0465 109.955 52.3122 113.845 55.631C114.969 56.5909 116.309 57.46 117.94 58.2873C121.382 60.033 124.974 61.5104 128.563 62.9568L130.04 63.5522C130.056 63.5587 132.018 64.3023 132.018 64.3023L131.282 66.4034C123.251 88.8878 110.491 108.615 93.3556 125.036C93.3228 125.067 93.291 125.099 93.2599 125.132L92.0643 126.414C92.0643 126.414 89.5224 123.911 89.5221 123.912C89.3126 123.687 84.2238 118.221 81.4881 116.07C74.9835 110.956 69.4793 110.836 63.0836 115.669C57.5327 119.865 50.3486 125.496 44.0146 131.862C36.8276 139.085 36.9239 146.667 44.3009 154.398C46.8628 157.083 49.7672 159.317 52.9867 161.101C52.9835 161.104 52.9806 161.108 52.9777 161.111C54.0566 161.71 55.1699 162.257 56.3153 162.751C56.3623 162.771 56.4106 162.786 56.4583 162.804C59.2611 163.999 62.2706 164.891 65.4775 165.471C67.4382 165.825 69.4825 166 71.5849 166C79.6889 166 88.655 163.406 97.0078 158.543C100.828 156.319 104.542 153.913 108.13 151.331C109.937 150.031 111.712 148.686 113.451 147.296C125.194 137.914 135.345 126.163 143.27 113.357C144.926 110.681 146.49 107.948 147.961 105.167C153.073 95.4979 157.125 85.2856 160.269 74.8149C162.143 68.5758 163.386 62.6348 163.966 57.1572C164.107 55.822 163.139 54.6248 161.803 54.4834ZM131.84 59.0225C128.677 57.7886 125.603 56.5332 122.536 55.107C120.616 54.2139 118.625 53.3153 117.002 51.9309C114.564 49.8505 113.963 47.3622 114.928 43.3436C116.63 36.2695 121.239 21.6251 121.508 20.8173C121.981 19.5283 122.582 18.3832 123.302 17.4035C124.383 15.9144 125.708 14.8189 127.24 14.147C133.51 11.3983 140.504 15.9283 145.313 19.61C145.338 19.6288 145.362 19.6473 145.387 19.6661C141.879 33.5571 137.923 47.0049 133.611 59.7035C133.031 59.4836 132.429 59.2524 131.84 59.0225ZM55.1845 156.763C55.1838 156.769 55.1825 156.775 55.1819 156.781C52.4682 155.255 50.023 153.349 47.8198 151.04C42.2475 145.2 42.144 140.638 47.4621 135.294C53.5465 129.179 60.2554 123.904 66.0158 119.551C70.601 116.085 73.7463 116.172 78.481 119.894C80.92 121.812 88.6942 129.924 88.6942 129.924C84.4492 134.188 79.8326 138.566 74.6439 143.251C68.6961 148.618 63.3696 153.173 57.0109 157.724C56.3886 157.425 55.7828 157.1 55.1845 156.763Z" fill="black"/>
</svg>
