<svg width="97" height="154" viewBox="0 0 97 154" fill="none" xmlns="http://www.w3.org/2000/svg">
<path d="M89.3944 18.6922V8.9172C89.4194 6.41316 88.305 4.03359 86.3654 2.44959C84.7211 1.13236 82.5608 0.648127 80.5119 1.13741L7.74934 18.745C3.7721 19.013 0.679555 22.3114 0.667969 26.2973V145.444C0.672425 149.642 4.07482 153.045 8.27308 153.049H89.3944C93.5927 153.045 96.9951 149.642 96.9995 145.444V26.2973C96.9948 22.099 93.5927 18.6969 89.3944 18.6922ZM81.7052 6.06647C82.2429 5.9417 82.8083 6.07776 83.2301 6.43396C83.9517 7.05336 84.3542 7.96627 84.3242 8.91691V18.6922H29.53L81.7052 6.06647ZM91.9294 145.444C91.9276 146.843 90.7936 147.977 89.3944 147.979H8.27308C6.87386 147.977 5.73993 146.843 5.73815 145.444V26.2973C5.73993 24.898 6.87386 23.7641 8.27308 23.7623H89.3944C90.7936 23.7641 91.9276 24.898 91.9294 26.2973V145.444Z" fill="black"/>
<path d="M61.5078 109.361C65.706 109.356 69.1084 105.954 69.1129 101.756V71.3351C71.9119 71.3324 74.1801 69.0639 74.183 66.2649V51.0547C74.183 39.9738 68.4819 32.2807 59.3032 30.976L56.7929 30.6207C56.0659 30.5179 55.3301 30.7356 54.7754 31.2169C54.2211 31.6985 53.9026 32.3966 53.9023 33.1309V101.755C53.9074 105.954 57.3095 109.356 61.5078 109.361ZM58.9728 36.0559C68.1153 37.6058 69.1129 47.0317 69.1129 51.0544V66.2646H66.5779C65.1778 66.2646 64.043 67.3997 64.043 68.7995V101.755C64.043 103.155 62.9082 104.29 61.5081 104.29C60.1079 104.29 58.9731 103.155 58.9731 101.755V36.0559H58.9728Z" fill="black"/>
<path d="M28.5553 62.3638V101.756C28.5553 105.956 31.9601 109.361 36.1604 109.361C40.3608 109.361 43.7656 105.956 43.7656 101.756V62.3638C46.908 60.5614 48.8429 57.2128 48.8357 53.5903V33.3098C48.8357 31.9097 47.7009 30.7749 46.3008 30.7749C44.9007 30.7749 43.7659 31.9097 43.7659 33.3098V45.9851C43.7659 47.3853 42.6307 48.5201 41.2309 48.5201C39.8308 48.5201 38.696 47.3853 38.696 45.9851V33.3098C38.696 31.9097 37.5612 30.7749 36.161 30.7749C34.7609 30.7749 33.6261 31.9097 33.6261 33.3098V45.9851C33.6261 47.3853 32.4913 48.5201 31.0912 48.5201C29.6911 48.5201 28.5562 47.3853 28.5562 45.9851V33.3098C28.5562 31.9097 27.4214 30.7749 26.0213 30.7749C24.6212 30.7749 23.4864 31.9097 23.4864 33.3098V53.5903C23.4777 57.2125 25.4129 60.5611 28.5553 62.3638ZM28.5553 53.1227C29.3672 53.4233 30.2249 53.5813 31.0903 53.59C32.9675 53.584 34.7752 52.8788 36.1604 51.612C38.204 53.5169 41.1492 54.1021 43.7656 53.123V53.59C43.778 55.7274 42.4299 57.6364 40.411 58.3396C39.3849 58.6898 38.6954 59.6541 38.6954 60.7385V101.756C38.6954 103.156 37.5606 104.291 36.1604 104.291C34.7603 104.291 33.6255 103.156 33.6255 101.756V60.7385C33.6255 59.6541 32.936 58.6898 31.9099 58.3396C29.8913 57.6364 28.5432 55.7277 28.5553 53.59V53.1227Z" fill="black"/>
<path d="M23.4822 129.641H58.9729C60.373 129.641 61.5078 128.506 61.5078 127.106C61.5078 125.706 60.3727 124.571 58.9729 124.571H23.4822C22.0821 124.571 20.9473 125.706 20.9473 127.106C20.9473 128.506 22.0821 129.641 23.4822 129.641Z" fill="#FAC505"/>
<path d="M74.1832 124.571H69.1131C67.713 124.571 66.5781 125.706 66.5781 127.106C66.5781 128.506 67.713 129.641 69.1131 129.641H74.1832C75.5834 129.641 76.7182 128.506 76.7182 127.106C76.7182 125.706 75.5834 124.571 74.1832 124.571Z" fill="#FAC505"/>
<path d="M74.1845 134.711H53.9041C52.504 134.711 51.3691 135.846 51.3691 137.246C51.3691 138.646 52.504 139.781 53.9041 139.781H74.1845C75.5846 139.781 76.7194 138.646 76.7194 137.246C76.7194 135.846 75.5846 134.711 74.1845 134.711Z" fill="#FAC505"/>
<path d="M43.7632 134.711H41.2283C39.8282 134.711 38.6934 135.846 38.6934 137.246C38.6934 138.646 39.8285 139.781 41.2283 139.781H43.7632C45.1634 139.781 46.2982 138.646 46.2982 137.246C46.2982 135.846 45.1634 134.711 43.7632 134.711Z" fill="#FAC505"/>
<path d="M31.0873 134.711H23.4822C22.0821 134.711 20.9473 135.846 20.9473 137.246C20.9473 138.646 22.0821 139.781 23.4822 139.781H31.0873C32.4874 139.781 33.6223 138.646 33.6223 137.246C33.6223 135.846 32.4874 134.711 31.0873 134.711Z" fill="#FAC505"/>
</svg>
