<svg width="180" height="180" viewBox="0 0 180 180" fill="none" xmlns="http://www.w3.org/2000/svg">
<path d="M149.667 118.28C149.667 114.056 146.23 110.62 142.007 110.62C137.783 110.62 134.347 114.056 134.347 118.28C134.347 122.504 137.783 125.94 142.007 125.94C146.23 125.94 149.667 122.504 149.667 118.28ZM139.093 118.28C139.093 116.673 140.4 115.366 142.006 115.366C143.613 115.366 144.92 116.673 144.92 118.28C144.92 119.887 143.613 121.194 142.006 121.194C140.4 121.194 139.093 119.887 139.093 118.28ZM102.206 118.28C102.206 114.056 98.7698 110.62 94.5462 110.62C90.3225 110.62 86.8863 114.056 86.8863 118.28C86.8863 122.504 90.3225 125.94 94.5462 125.94C98.7698 125.94 102.206 122.504 102.206 118.28ZM91.6321 118.28C91.6321 116.673 92.9391 115.366 94.5458 115.366C96.1525 115.366 97.4596 116.673 97.4596 118.28C97.4596 119.887 96.1525 121.194 94.5458 121.194C92.9391 121.194 91.6321 119.887 91.6321 118.28ZM162.383 163.327L153.118 157.845C164.579 147.746 171.094 133.217 170.999 117.942C170.91 104.129 165.465 91.0792 155.665 81.1972C145.864 71.3144 132.861 65.7621 119.05 65.5634C117.463 65.5422 115.873 65.5985 114.296 65.7153C114.394 64.394 114.445 63.0635 114.445 61.7254C114.445 47.4993 108.865 34.1642 98.7322 24.1762C88.6016 14.1902 75.1816 8.79965 60.9469 9.00879C51.4184 9.1458 42.0981 11.8862 33.9938 16.9334C32.8813 17.6264 32.5412 19.0897 33.2341 20.2022C33.9267 21.3147 35.3907 21.6551 36.5029 20.9619C43.8738 16.3712 52.3502 13.8786 61.0153 13.7539C73.9717 13.5694 86.182 18.4689 95.4004 27.5561C104.621 36.6451 109.699 48.7798 109.699 61.7254C109.699 63.8264 109.561 65.907 109.296 67.9586C107.964 78.2651 103.342 87.8215 95.944 95.3484C87.0904 104.357 75.2686 109.45 62.6533 109.69L21.9878 109.7L29.5189 105.244C30.7747 104.501 31.6037 103.19 31.7372 101.738C31.8707 100.285 31.2933 98.8434 30.1925 97.8825C19.6528 88.684 13.6588 75.3919 13.7471 61.4147C13.8291 48.4203 19.0769 36.2606 28.5238 27.1751C29.4686 26.2664 29.4977 24.7644 28.5893 23.82C27.6809 22.8755 26.1786 22.8458 25.2341 23.7545C14.8564 33.7354 9.09155 47.0997 9.00106 61.385C8.90455 76.6594 15.4184 91.1896 26.8801 101.29L17.6145 106.772C15.9939 107.731 15.2396 109.595 15.7367 111.411C16.2337 113.227 17.8322 114.446 19.7145 114.446L62.6764 114.436C62.691 114.436 62.7055 114.436 62.7197 114.435C76.5928 114.178 89.5941 108.58 99.3289 98.6751C106.992 90.8779 111.946 81.1004 113.716 70.518C115.457 70.3553 117.222 70.2848 118.982 70.3092C131.543 70.4901 143.374 75.5437 152.295 84.5394C161.215 93.5348 166.172 105.408 166.252 117.972C166.339 131.95 160.344 145.241 149.805 154.438C148.704 155.4 148.127 156.841 148.261 158.295C148.395 159.747 149.225 161.057 150.48 161.799L158.011 166.255L117.347 166.246C92.9505 165.781 72.8193 147.137 70.5169 122.871C70.3932 121.566 69.237 120.608 67.9303 120.732C66.6254 120.856 65.6683 122.014 65.792 123.319C68.3232 149.998 90.4582 170.493 117.28 170.992C117.294 170.992 117.309 170.992 117.323 170.992L160.282 171.002C162.165 171.002 163.764 169.782 164.262 167.967C164.759 166.151 164.004 164.286 162.383 163.327ZM61.7224 88.1644C57.4988 88.1644 54.0626 91.6006 54.0626 95.8243C54.0626 100.048 57.4988 103.484 61.7224 103.484C65.9461 103.484 69.3823 100.048 69.3823 95.8243C69.3823 91.6006 65.9461 88.1644 61.7224 88.1644ZM61.7224 98.7383C60.1157 98.7383 58.8087 97.4313 58.8087 95.8246C58.8087 94.2179 60.1157 92.9108 61.7224 92.9108C63.3291 92.9108 64.6362 94.2179 64.6362 95.8246C64.6362 97.4313 63.3291 98.7383 61.7224 98.7383ZM125.936 118.28C125.936 114.056 122.5 110.62 118.276 110.62C114.053 110.62 110.617 114.056 110.617 118.28C110.617 122.504 114.053 125.94 118.276 125.94C122.5 125.94 125.936 122.504 125.936 118.28ZM115.362 118.28C115.362 116.673 116.669 115.366 118.276 115.366C119.883 115.366 121.19 116.673 121.19 118.28C121.19 119.887 119.883 121.194 118.276 121.194C116.669 121.194 115.362 119.887 115.362 118.28ZM78.6064 59.2746C83.0468 54.5978 85.3078 48.4694 84.9727 42.0186C84.3336 29.7174 74.0397 19.9652 61.7243 19.9652C50.1728 19.9652 40.2592 28.5818 38.6648 40.0084C38.5158 41.0757 38.4402 42.1654 38.4402 43.2475C38.4402 47.1731 41.6337 50.3665 45.5593 50.3665C49.4849 50.3665 52.6784 47.1731 52.6784 43.2475C52.6784 42.8206 52.7078 42.3938 52.7663 41.9768C53.3972 37.4535 57.327 34.1135 61.9129 34.2053C66.6264 34.3002 70.5096 38.0562 70.7539 42.7564C70.8842 45.2693 70.0059 47.654 68.2809 49.4708C66.5539 51.2898 64.2249 52.2912 61.7224 52.2912C57.7968 52.2912 54.6034 55.4847 54.6034 59.4103V76.3116C54.6034 80.2373 57.7968 83.4307 61.7224 83.4307C65.6481 83.4307 68.8415 80.2373 68.8415 76.3116V65.4068C72.5624 64.2117 75.9097 62.1146 78.6064 59.2746ZM65.9259 61.2948C64.8533 61.5464 64.0951 62.5032 64.0951 63.6049V76.312C64.0951 77.6206 63.0308 78.685 61.7221 78.685C60.4135 78.685 59.3491 77.6206 59.3491 76.312V59.4106C59.3491 58.102 60.4135 57.0376 61.7221 57.0376C65.5392 57.0376 69.0908 55.511 71.7224 52.7389C74.3526 49.9688 75.6917 46.3365 75.4933 42.5106C75.1155 35.2307 69.0174 29.4576 61.7247 29.4576C54.8612 29.4576 49.015 34.5119 48.0655 41.3203C47.8111 43.145 48.0915 45.6208 45.559 45.6208C42.8211 45.6208 43.1049 42.5276 43.365 40.665C44.6341 31.57 52.5268 24.7116 61.724 24.7116C71.511 24.7116 79.7245 32.4765 80.233 42.265C80.4997 47.4031 78.6997 52.2836 75.1642 56.0071C72.6713 58.6326 69.4769 60.4611 65.9259 61.2948Z" fill="black"/>
<path d="M149.667 118.279C149.667 114.056 146.231 110.62 142.007 110.62C137.783 110.62 134.347 114.056 134.347 118.279C134.347 122.503 137.783 125.939 142.007 125.939C146.231 125.939 149.667 122.503 149.667 118.279ZM139.093 118.279C139.093 116.673 140.4 115.366 142.007 115.366C143.614 115.366 144.921 116.673 144.921 118.279C144.921 119.886 143.614 121.193 142.007 121.193C140.4 121.193 139.093 119.886 139.093 118.279ZM102.206 118.279C102.206 114.056 98.7702 110.62 94.5465 110.62C90.3228 110.62 86.8867 114.056 86.8867 118.279C86.8867 122.503 90.3228 125.939 94.5465 125.939C98.7702 125.939 102.206 122.503 102.206 118.279ZM91.6324 118.279C91.6324 116.673 92.9395 115.366 94.5462 115.366C96.1529 115.366 97.46 116.673 97.46 118.279C97.46 119.886 96.1529 121.193 94.5462 121.193C92.9395 121.193 91.6324 119.886 91.6324 118.279ZM61.7227 88.1637C57.499 88.1637 54.0629 91.5999 54.0629 95.8236C54.0629 100.047 57.499 103.483 61.7227 103.483C65.9464 103.483 69.3826 100.047 69.3826 95.8236C69.3826 91.5999 65.9464 88.1637 61.7227 88.1637ZM61.7227 98.7377C60.116 98.7377 58.809 97.4306 58.809 95.8239C58.809 94.2172 60.116 92.9101 61.7227 92.9101C63.3294 92.9101 64.6365 94.2172 64.6365 95.8239C64.6365 97.4306 63.3294 98.7377 61.7227 98.7377ZM125.937 118.279C125.937 114.056 122.501 110.62 118.277 110.62C114.053 110.62 110.617 114.056 110.617 118.279C110.617 122.503 114.053 125.939 118.277 125.939C122.501 125.939 125.937 122.503 125.937 118.279ZM115.363 118.279C115.363 116.673 116.67 115.366 118.277 115.366C119.883 115.366 121.19 116.673 121.19 118.279C121.19 119.886 119.883 121.193 118.277 121.193C116.67 121.193 115.363 119.886 115.363 118.279ZM78.6067 59.2738C83.0471 54.597 85.3081 48.4686 84.9731 42.0177C84.3339 29.7166 74.04 19.9644 61.7246 19.9644C50.173 19.9644 40.2594 28.581 38.6651 40.0076C38.516 41.0749 38.4404 42.1646 38.4404 43.2467C38.4404 47.1723 41.6339 50.3658 45.5595 50.3658C49.4852 50.3658 52.6786 47.1723 52.6786 43.2467C52.6786 42.8198 52.7081 42.393 52.7666 41.976C53.3975 37.4527 57.3272 34.1127 61.9132 34.2045C66.6267 34.2994 70.5099 38.0554 70.7542 42.7556C70.8845 45.2685 70.0062 47.6532 68.2812 49.47C66.5542 51.289 64.2252 52.2904 61.7227 52.2904C57.7971 52.2904 54.6036 55.4839 54.6036 59.4095V76.3109C54.6036 80.2365 57.7971 83.43 61.7227 83.43C65.6484 83.43 68.8418 80.2365 68.8418 76.3109V65.406C72.5627 64.211 75.91 62.1139 78.6067 59.2738ZM65.9262 61.2941C64.8535 61.5456 64.0954 62.5024 64.0954 63.6041V76.3112C64.0954 77.6199 63.0311 78.6843 61.7224 78.6843C60.4138 78.6843 59.3494 77.6199 59.3494 76.3112V59.4099C59.3494 58.1012 60.4138 57.0368 61.7224 57.0368C65.5395 57.0368 69.0912 55.5102 71.7227 52.7382C74.353 49.968 75.692 46.3357 75.4936 42.5098C75.1158 35.2299 69.0177 29.4568 61.7249 29.4568C54.8615 29.4568 49.0153 34.511 48.0658 41.3194C47.8114 43.1441 48.0917 45.62 45.5592 45.62C42.8214 45.62 43.1052 42.5268 43.3653 40.6642C44.6344 31.5691 52.5271 24.7107 61.7243 24.7107C71.5113 24.7107 79.7249 32.4756 80.2333 42.2642C80.5001 47.4023 78.7 52.2829 75.1645 56.0063C72.6716 58.6318 69.4772 60.4603 65.9262 61.2941Z" fill="#FAC505"/>
</svg>
