<svg width="14" height="14" viewBox="0 0 14 14" fill="none" xmlns="http://www.w3.org/2000/svg">
<path d="M12.3459 0.45459H1.65416C1.00004 0.45459 0.45459 1.00004 0.45459 1.65416V12.3459C0.45459 13 1.00004 13.5455 1.65416 13.5455H7.00004V8.09095H5.36368V6.45459H7.00004V4.81823C7.00004 3.45459 7.5455 2.63641 9.18186 2.63641H10.8182V4.27277H10.1087C9.61865 4.27277 9.18186 4.70956 9.18186 5.19962V6.45459H11.3637L11.091 8.09095H9.18186V13.5455H12.3459C13 13.5455 13.5455 13 13.5455 12.3459V1.65416C13.5455 1.00004 13 0.45459 12.3459 0.45459V0.45459Z" fill="#23599B"/>
</svg>
