<svg width="60" height="60" viewBox="0 0 60 60" fill="none" xmlns="http://www.w3.org/2000/svg">
<path d="M41.2391 20.1997L40.6613 18.298C39.9274 16.1378 37.5812 14.9816 35.421 15.7156C34.2057 16.1285 33.2514 17.0828 32.8385 18.298L32.2607 20.1997C31.7745 21.8035 31.6725 23.4992 31.9628 25.1497C32.2277 26.5393 33.1099 27.7332 34.3604 28.3942L33.7133 42.8599C33.6267 43.6673 33.8886 44.4734 34.4333 45.0757C35.6048 46.3571 37.5934 46.4462 38.8747 45.2747C38.944 45.2114 39.0104 45.145 39.0737 45.0757C39.6063 44.4905 39.8678 43.7081 39.7937 42.9202L39.143 28.3924C40.3919 27.731 41.2727 26.538 41.537 25.1497C41.8274 23.4992 41.7254 21.8035 41.2391 20.1997ZM39.764 24.8365C39.5692 25.8349 38.8577 26.654 37.8965 26.9866C37.5317 27.1238 37.2967 27.4802 37.3142 27.8695L37.9982 43.0624C38.0297 43.3604 37.9314 43.6576 37.7282 43.8778C37.1863 44.4143 36.3135 44.4143 35.7716 43.8778C35.5583 43.6398 35.4615 43.3194 35.507 43.003L36.1856 27.8695C36.2032 27.4802 35.9682 27.1238 35.6033 26.9866C34.6421 26.654 33.9307 25.8349 33.7358 24.8365C33.4951 23.4663 33.5799 22.0586 33.9833 20.7271L34.5611 18.8245C35.0082 17.6157 36.3506 16.9982 37.5595 17.4453C38.1986 17.6816 38.7024 18.1855 38.9387 18.8245L39.5165 20.7271C39.9195 22.0587 40.0043 23.4663 39.764 24.8365Z" fill="#FAC505"/>
<path d="M27.3 15.5C26.803 15.5 26.4 15.903 26.4 16.4V24.1274L23.9637 26.5637C23.7835 26.7433 23.6876 26.9909 23.7 27.245L24.4875 42.995C24.5063 43.3346 24.383 43.6669 24.1473 43.9121C23.6547 44.4091 22.8523 44.4127 22.3552 43.92C22.3525 43.9174 22.3499 43.9147 22.3473 43.9121C22.1115 43.6669 21.9883 43.3346 22.0071 42.995L22.8 27.245C22.8126 26.991 22.7171 26.7435 22.5372 26.5637L20.1 24.1274V16.4C20.1 15.903 19.697 15.5 19.2 15.5C18.703 15.5 18.3 15.903 18.3 16.4V24.5C18.3 24.7387 18.395 24.9676 18.5637 25.1363L20.9811 27.5546L20.2134 42.9077C20.1317 44.5847 21.425 46.0106 23.1021 46.0922C24.7791 46.1739 26.2049 44.8806 26.2866 43.2036C26.2914 43.105 26.2914 43.0064 26.2866 42.9078L25.5189 27.5547L27.9363 25.1364C28.1051 24.9677 28.2 24.7388 28.2 24.5001V16.4001C28.2 15.903 27.797 15.5 27.3 15.5Z" fill="#FAC505"/>
<path d="M21.9 15.5C21.403 15.5 21 15.903 21 16.4V23.6C21 24.097 21.403 24.5 21.9 24.5C22.397 24.5 22.8 24.097 22.8 23.6V16.4C22.8 15.903 22.397 15.5 21.9 15.5Z" fill="#FAC505"/>
<path d="M24.6 15.5C24.103 15.5 23.7 15.903 23.7 16.4V23.6C23.7 24.097 24.103 24.5 24.6 24.5C25.097 24.5 25.5 24.097 25.5 23.6V16.4C25.5 15.903 25.097 15.5 24.6 15.5Z" fill="#FAC505"/>
<path d="M30 2C15.0883 2 3 14.0883 3 29C3 43.9116 15.0883 56 30 56C44.9116 56 57 43.9116 57 29C56.9831 14.0953 44.9047 2.01688 30 2ZM30 54.2C16.0824 54.2 4.8 42.9176 4.8 29C4.8 15.0824 16.0824 3.8 30 3.8C43.9176 3.8 55.2 15.0824 55.2 29C55.1841 42.911 43.911 54.1841 30 54.2Z" fill="black"/>
<path d="M32.9214 45.8947C32.8732 45.4 32.433 45.0381 31.9382 45.0863C31.9266 45.0875 31.915 45.0888 31.9034 45.0904L31.907 45.0895C30.6399 45.2366 29.3599 45.2366 28.0928 45.0895C27.5989 45.0316 27.1518 45.3849 27.0938 45.8788C27.0359 46.3727 27.3892 46.8199 27.8831 46.8778C29.2884 47.0419 30.7079 47.0419 32.1131 46.8778C32.6078 46.8296 32.9697 46.3894 32.9214 45.8947Z" fill="black"/>
<path d="M43.7699 17.4027C43.4506 17.0219 42.8829 16.9721 42.5021 17.2916C42.5008 17.2926 42.4996 17.2937 42.4982 17.2947C42.1183 17.6151 42.07 18.1828 42.3902 18.5628C47.8167 25.0046 47.4016 34.5298 41.4353 40.4751C41.0832 40.826 41.0822 41.396 41.4331 41.7482C41.784 42.1003 42.354 42.1013 42.7061 41.7504C49.3365 35.1452 49.7989 24.561 43.7699 17.4027Z" fill="black"/>
<path d="M34.2453 11.5033C30.728 10.6603 27.0391 10.8869 23.6514 12.154C23.1861 12.3289 22.9509 12.848 23.1258 13.3132C23.2577 13.6638 23.5929 13.8959 23.9674 13.8962C24.0751 13.8957 24.1818 13.876 24.2823 13.8379C27.3331 12.697 30.655 12.4933 33.8223 13.2529C34.3055 13.3696 34.7919 13.0727 34.9086 12.5896C35.0254 12.1064 34.7285 11.62 34.2453 11.5033Z" fill="black"/>
<path d="M18.5241 40.4301C15.49 37.4013 13.7896 33.2873 13.8 29.0001C13.7911 25.5749 14.876 22.2364 16.8969 19.4709C17.1955 19.0736 17.1156 18.5094 16.7182 18.2107C16.3209 17.912 15.7567 17.992 15.458 18.3893C15.4527 18.3964 15.4475 18.4035 15.4425 18.4107C10.239 25.5644 11.0047 35.4386 17.2488 41.7045C17.6007 42.0566 18.1715 42.0569 18.5236 41.705C18.8757 41.3531 18.876 40.7822 18.5241 40.4301Z" fill="black"/>
</svg>
