<svg width="16" height="16" viewBox="0 0 16 16" fill="none" xmlns="http://www.w3.org/2000/svg">
<path d="M15.1995 8.16524C15.1995 7.67578 15.159 7.18367 15.0726 6.70215H8.14355V9.47488H12.1115C11.9469 10.3691 11.4178 11.1602 10.6431 11.6629V13.462H13.0104C14.4005 12.2079 15.1995 10.3559 15.1995 8.16524Z" fill="#4285F4"/>
<path d="M8.14379 15.2005C10.1251 15.2005 11.7959 14.5629 13.0133 13.4623L10.646 11.6632C9.98741 12.1023 9.13713 12.351 8.14649 12.351C6.22999 12.351 4.60501 11.0837 4.02196 9.37988H1.5791V11.2345C2.82618 13.666 5.36621 15.2005 8.14379 15.2005Z" fill="#34A853"/>
<path d="M4.01946 9.38007C3.71174 8.48581 3.71174 7.51747 4.01946 6.62322V4.76855H1.5793C0.53737 6.80313 0.53737 9.20016 1.5793 11.2347L4.01946 9.38007Z" fill="#FBBC04"/>
<path d="M8.14379 3.64877C9.19111 3.6329 10.2033 4.01917 10.9619 4.72823L13.0592 2.67249C11.7311 1.45016 9.96851 0.778147 8.14379 0.799313C5.36621 0.799313 2.82618 2.33384 1.5791 4.76792L4.01926 6.62258C4.59961 4.91608 6.22729 3.64877 8.14379 3.64877Z" fill="#EA4335"/>
</svg>
