<svg width="16" height="16" viewBox="0 0 16 16" fill="none" xmlns="http://www.w3.org/2000/svg">
<path d="M4.72728 0.636368C2.46828 0.636368 0.636368 2.46828 0.636368 4.72728V11.2727C0.636368 13.5317 2.46828 15.3636 4.72728 15.3636H11.2727C13.5317 15.3636 15.3636 13.5317 15.3636 11.2727V4.72728C15.3636 2.46828 13.5317 0.636368 11.2727 0.636368H4.72728ZM12.9091 2.27273C13.3607 2.27273 13.7273 2.63928 13.7273 3.09091C13.7273 3.54255 13.3607 3.90909 12.9091 3.90909C12.4575 3.90909 12.0909 3.54255 12.0909 3.09091C12.0909 2.63928 12.4575 2.27273 12.9091 2.27273ZM8 3.90909C10.259 3.90909 12.0909 5.741 12.0909 8C12.0909 10.259 10.259 12.0909 8 12.0909C5.741 12.0909 3.90909 10.259 3.90909 8C3.90909 5.741 5.741 3.90909 8 3.90909ZM8 5.54546C7.34902 5.54546 6.72469 5.80406 6.26438 6.26438C5.80406 6.72469 5.54546 7.34902 5.54546 8C5.54546 8.65099 5.80406 9.27531 6.26438 9.73563C6.72469 10.1959 7.34902 10.4545 8 10.4545C8.65099 10.4545 9.27531 10.1959 9.73563 9.73563C10.1959 9.27531 10.4545 8.65099 10.4545 8C10.4545 7.34902 10.1959 6.72469 9.73563 6.26438C9.27531 5.80406 8.65099 5.54546 8 5.54546Z" fill="white"/>
</svg>
