<svg width="60" height="60" viewBox="0 0 60 60" fill="none" xmlns="http://www.w3.org/2000/svg">
<path d="M49.3385 18.1271C48 15.6027 46.2505 13.3365 44.1839 11.3992V13.9354C45.3699 15.2152 46.4149 16.6242 47.2955 18.1271H49.3385Z" fill="#FAC505"/>
<path d="M26.6184 4.45996C21.4286 4.45996 16.6027 5.99812 12.5636 8.64C12.0939 8.94528 12.0235 9.61456 12.4227 10.0255C12.728 10.3308 13.1859 10.366 13.5499 10.1429C17.3072 7.68892 21.8043 6.25644 26.6301 6.25644C29.7769 6.25644 32.7828 6.86701 35.5303 7.97072C39.7408 9.66209 37 7.63405 37 7C37 6.63601 36.5284 6.44431 36.1879 6.30341C33.2172 5.1175 30 4.45996 26.6184 4.45996Z" fill="#FAC505"/>
<path d="M46.1096 44.0762C41.8121 50.0997 34.7906 54.0449 26.8532 54.1153C13.5969 54.2445 2.70057 43.4656 2.67709 30.221C2.66535 23.1173 5.75341 16.7415 10.6614 12.3502C11.0959 11.9627 11.0372 11.2817 10.5675 10.9646L10.5558 10.9529C10.2153 10.7298 9.76907 10.7533 9.46378 11.0233C4.23873 15.6965 0.939322 22.4832 0.892355 30.0331C0.810163 44.0175 12.0352 55.583 26.0196 55.9001C35.3542 56.1114 43.5851 51.3443 48.27 44.0762H46.1096Z" fill="#FAC505"/>
<path d="M47.8121 44.7221L50.9237 44.7455C52.2975 44.7573 53.589 44.0763 54.364 42.9373C54.8102 42.268 55.0567 41.4931 55.0685 40.6829C55.0802 39.5792 54.6458 38.5812 53.9413 37.8414C54.5166 37.5361 55.0215 37.0782 55.3973 36.5264C55.8434 35.8571 56.09 35.0821 56.1018 34.272C56.1135 33.1682 55.6791 32.1702 54.9746 31.4305C55.5499 31.1252 56.0548 30.6673 56.4305 30.1037C56.8767 29.4344 57.1233 28.6594 57.135 27.8493C57.1468 26.7455 56.7123 25.7475 56.0078 25.0078C56.5832 24.7025 57.0881 24.2446 57.4638 23.681C57.91 23.0117 58.1566 22.2367 58.1566 21.4266C58.1683 20.3346 57.7456 19.3013 56.9824 18.5146C56.7828 18.315 56.5714 18.1389 56.3483 17.9862C55.6908 17.5401 54.9158 17.2935 54.0939 17.2935L48.8102 17.2465C48.7984 17.223 46.7202 17.2113 46.7319 17.223L43.9139 17.1996L44.2779 15.7201C44.3836 15.2622 44.4775 14.8043 44.5597 14.3346C44.7006 13.3013 44.7828 12.2093 44.7945 12.0097C44.8532 10.4481 44.7241 8.88644 44.407 7.34828L43.9139 5.04691C43.7143 4.09584 43.1624 3.28566 42.364 2.74555C41.7652 2.33459 41.0607 2.12324 40.3327 2.11149C39.0881 2.09975 37.9374 2.71032 37.2329 3.74359C36.8219 4.34241 36.6106 5.04692 36.5988 5.7749C36.5988 6.00973 36.5871 6.24457 36.5636 6.4794L36.2818 8.27588C35.7769 10.3189 34.6732 12.1976 33.135 13.6301L26.137 20.1467C26.0548 19.6536 25.8317 19.2074 25.4794 18.8434C25.362 18.726 25.2329 18.6203 25.1037 18.5264C24.7162 18.268 24.2583 18.1271 23.7769 18.1154L5.96477 18.045C5.72994 18.4207 5.18982 19.4187 5.04892 19.7358L15.5577 19.818L15.5225 42.679C15.5225 42.679 6.3405 42.6086 6.18786 42.6086C6.71624 43.4422 6.8454 43.6653 7.38551 44.3815C7.50293 44.3815 23.5773 44.5224 23.5773 44.5224C24.9041 44.5342 25.9961 43.454 26.0078 42.1271V41.9862L27.4051 41.998C28.18 42.0097 28.9315 42.2328 29.5773 42.6673C29.7534 42.7847 29.9178 42.9138 30.0704 43.0547C31.1155 44.041 32.4892 44.5812 33.9335 44.5929L39.452 44.6399C39.9452 44.6399 40.3444 44.2524 40.3444 43.7592C40.3444 43.454 40.1918 43.1839 39.9569 43.0195C39.816 42.9256 39.6517 42.8669 39.4755 42.8669L33.9569 42.8199C32.9589 42.8082 32.0196 42.4324 31.2916 41.7514C31.0685 41.5401 30.8337 41.3522 30.5753 41.1878C29.6477 40.5538 28.5558 40.225 27.4286 40.2132L26.0313 40.2015L26.1839 22.5303L34.3679 14.9099C36.3522 13.0665 37.7143 10.5772 38.1957 7.91189V7.90014C38.3248 7.20738 38.3836 6.49114 38.3953 5.7749C38.3953 5.39917 38.5127 5.03517 38.7241 4.71815C39.0881 4.17803 39.6869 3.861 40.3327 3.87275C40.7084 3.87275 41.0841 3.99016 41.3894 4.20151C41.8121 4.48331 42.0939 4.90601 42.1996 5.39917L42.681 7.70053C42.998 9.21521 43.1155 10.7534 43.0215 12.2915C43.0215 12.3033 43.0215 12.315 43.0215 12.3268C42.9628 13.3131 42.8102 14.3111 42.5753 15.2857L41.953 17.8571C41.8356 18.3268 42.1292 18.8082 42.5988 18.9256C42.6106 18.9256 42.6223 18.9256 42.634 18.9256C42.6693 18.9373 42.7045 18.9373 42.7749 18.9491C42.7867 18.9491 42.7867 18.9491 42.7984 18.9491H42.8102L54.1174 19.043C54.7397 19.043 55.3268 19.3013 55.7612 19.7358C56.1957 20.1819 56.4305 20.769 56.4305 21.3913C56.4305 21.8493 56.2896 22.2954 56.0313 22.6712C55.5969 23.317 54.8571 23.7044 54.0704 23.7044L53.1076 23.6927H53.0959L50.9119 23.6692C50.4188 23.6692 50.0196 24.0567 50.0196 24.5498C50.0196 25.043 50.407 25.4422 50.9002 25.4422L53.1076 25.4657C54.3875 25.4892 55.4207 26.5342 55.409 27.814C55.409 28.272 55.2681 28.7181 55.0098 29.0939C54.5753 29.7514 53.8356 30.1271 53.0489 30.1271L49.8787 30.1037C49.3855 30.1037 48.9863 30.4911 48.9863 30.9843C48.9863 31.4774 49.3738 31.8767 49.8669 31.8767L52.0744 31.9001C53.3542 31.9236 54.3875 32.9686 54.3757 34.2485C54.3757 34.7064 54.2348 35.1526 53.9765 35.5283C53.5421 36.1859 52.8023 36.5616 52.0157 36.5616L48.8454 36.5381C48.3522 36.5381 47.953 36.9256 47.953 37.4187C47.953 37.9119 48.3405 38.3111 48.8337 38.3111L51.0294 38.3346C52.3092 38.3463 53.3542 39.4031 53.3425 40.6829C53.3425 41.1408 53.2016 41.587 52.9432 41.9628C52.5088 42.6086 51.7691 42.996 50.9941 42.996L43.2916 42.9256C42.7984 42.9256 42.3992 43.3131 42.3992 43.8062C42.3992 44.2994 42.7867 44.6986 43.2798 44.6986L45.6986 44.7221H47.8121ZM24.2466 41.0939L24.2348 42.1154C24.2348 42.4677 23.9413 42.7612 23.589 42.7495L17.2955 42.6907L17.3542 19.8297L23.7769 19.8884C23.953 19.8884 24.1057 19.9589 24.2231 20.0763C24.3405 20.1937 24.411 20.3581 24.411 20.5342L24.2466 41.0939C24.2466 41.0821 24.2466 41.0821 24.2466 41.0939Z" fill="black"/>
</svg>
