<svg width="241" height="241" viewBox="0 0 241 241" fill="none" xmlns="http://www.w3.org/2000/svg">
<g clip-path="url(#clip0)">
<path d="M2.73096 224.985L5.85503 232.017L117.959 185.533L137.49 187.877L144.52 209.361L135.146 218.346C131.631 221.47 130.459 226.547 132.412 231.235L136.319 241L201.157 215.611L197.642 206.237C196.08 201.549 191.783 198.815 186.706 198.815H173.815L166.785 182.018L183.971 173.426C189.439 170.691 191.783 164.441 189.83 158.973L167.567 99.2113C165.223 92.9612 158.582 90.2262 152.332 92.1792C152.332 92.1792 151.943 92.1792 151.943 92.5702L135.537 99.6003L133.193 93.7413L142.178 83.1961C148.426 76.1641 152.332 67.5719 153.505 58.1978L164.832 44.5266C172.253 35.9326 170.691 23.0434 162.097 15.6203C160.535 14.4493 158.973 13.2782 157.411 12.4963C153.114 10.5433 148.817 10.1523 144.131 11.3252L142.958 7.80826C141.005 1.56011 133.975 -1.56588 128.115 0.778134L45.6975 30.4645C39.4474 32.8085 36.3233 39.4476 38.6674 45.3067V45.6977L40.6204 50.7748C30.4643 55.4628 25.7763 67.1809 29.2913 77.337C32.0263 85.1491 39.0564 90.6172 47.2595 91.7883L65.6187 93.7413C73.0398 99.2113 82.0229 102.726 91.008 103.506L103.897 104.679L106.241 110.538C103.506 112.1 101.553 114.835 100.773 118.351L98.0381 131.631L2.73096 170.3L5.46595 177.721L60.1506 155.849L73.4308 195.689L2.73096 224.985ZM189.83 208.581L190.612 210.923L140.614 230.844L139.443 228.5C139.052 226.938 139.443 225.376 140.225 224.205L153.505 211.705L170.3 206.237H185.924C187.877 206.237 189.05 207.017 189.83 208.581ZM165.223 199.205L151.161 203.893L146.084 189.05C148.426 189.439 150.379 189.05 152.332 187.877L158.973 184.753L165.223 199.205ZM154.676 98.4293C156.629 97.6473 158.973 98.4293 159.755 100.382L162.879 108.585L143.74 114.835L146.084 122.257L165.223 116.007L169.909 128.507L151.552 134.755L153.896 142.178L172.644 135.928L177.332 148.426L159.364 154.285L161.708 161.708L180.065 155.458L182.018 160.535C182.8 162.488 182.018 164.441 180.065 165.223L149.208 180.456C148.426 180.847 147.646 180.847 146.864 180.847L120.303 177.721L105.85 134.366L108.585 119.913C108.976 118.742 109.756 117.569 110.929 117.178L154.676 98.4293ZM154.285 19.5264C160.535 22.2614 163.661 29.6825 160.926 36.3235C160.535 37.4946 159.755 38.2766 158.973 39.4476L154.285 45.3067C153.896 41.4006 153.114 37.8856 151.943 33.9795L146.864 18.7463C149.599 18.3553 151.943 18.7463 154.285 19.5264ZM37.1034 75.384C34.7613 68.743 37.4944 61.7128 43.7444 58.5869L49.2125 71.8689C51.1656 76.5551 53.9006 81.2431 57.0246 85.1491L48.8215 84.3671C43.3535 83.9762 38.6674 80.4611 37.1034 75.384ZM92.57 96.0853C76.5549 94.5233 62.4927 84.3671 56.6336 69.1339L46.4794 43.3537C45.6975 41.4006 46.4794 39.0566 48.4325 38.2766L130.849 8.59023C132.021 8.19924 132.802 8.19924 133.975 8.59023C134.755 8.98121 135.537 9.76128 135.928 10.9342L144.52 36.7145C149.208 51.1658 146.084 66.7899 136.319 78.1171L124.209 92.1792L127.724 101.553L113.662 107.412L109.756 97.6473L92.57 96.0853ZM67.5717 152.723L76.5549 149.208L86.32 178.894L93.7411 176.55L83.5869 146.084L99.2111 139.834L112.491 179.285L80.8519 192.565L67.5717 152.723Z" fill="black"/>
<path d="M195.689 68.352V72.258H203.501V68.352C203.501 57.4158 212.096 48.8217 223.032 48.8217V41.0096C212.096 41.0096 203.501 32.4175 203.501 21.4794V17.5734H195.689V21.4794C195.689 32.4175 187.097 41.0096 176.159 41.0096V48.8217C187.097 48.8217 195.689 57.4158 195.689 68.352ZM199.595 35.5416C201.939 39.4476 205.064 42.5736 208.97 44.9157C205.064 47.2597 201.939 50.3857 199.595 54.2917C197.251 50.3857 194.127 47.2597 190.221 44.9157C194.127 42.5736 197.251 39.4476 199.595 35.5416Z" fill="#FAC505"/>
<path d="M23.8237 146.473V150.379H31.6358V146.473C31.6358 135.537 40.2299 126.943 51.166 126.943V119.131C40.2299 119.131 31.6358 110.538 31.6358 99.6004V95.6943H23.8237V99.6004C23.8237 110.538 15.2315 119.131 4.29346 119.131V126.943C15.2315 126.943 23.8237 135.537 23.8237 146.473ZM27.7297 113.663C30.0737 117.569 33.1978 120.695 37.1039 123.037C33.1978 125.381 30.0737 128.507 27.7297 132.413C25.3857 128.507 22.2617 125.381 18.3556 123.037C22.2617 120.695 25.3857 117.569 27.7297 113.663Z" fill="#FAC505"/>
<path d="M219.126 99.6004V95.6943H211.314V99.6004C211.314 110.538 202.722 119.131 191.784 119.131V126.943C202.722 126.943 211.314 135.537 211.314 146.473V150.379H219.126V146.473C219.126 135.537 227.72 126.943 238.656 126.943V119.131C227.72 119.131 219.126 110.538 219.126 99.6004ZM215.22 132.413C212.876 128.507 209.752 125.381 205.846 123.037C209.752 120.695 212.876 117.569 215.22 113.663C217.564 117.569 220.688 120.695 224.594 123.037C220.688 125.381 217.564 128.507 215.22 132.413Z" fill="#FAC505"/>
<path d="M118.741 69.525L124.21 74.993C145.693 53.5098 125.772 20.6994 124.601 19.5264L117.959 23.8235C118.35 23.8235 135.928 52.3387 118.741 69.525Z" fill="black"/>
</g>
<defs>
<clipPath id="clip0">
<rect width="241" height="241" fill="white"/>
</clipPath>
</defs>
</svg>
