<svg width="60" height="60" viewBox="0 0 60 60" fill="none" xmlns="http://www.w3.org/2000/svg">
<g clip-path="url(#clip0)">
<path d="M46.2497 22.749H11.2488C9.18122 22.749 7.49872 24.4315 7.49872 26.4991V28.9991C7.49872 37.9193 12.4263 46.0095 20.3565 50.1121C20.969 50.4272 21.724 50.1896 22.0416 49.5746C22.3566 48.962 22.119 48.2071 21.504 47.8895C14.4088 44.2195 9.99874 36.9818 9.99874 28.999V26.499C9.99874 25.809 10.5588 25.2489 11.2488 25.2489H46.2497C46.9397 25.2489 47.4997 25.809 47.4997 26.499V28.999C47.4997 36.9817 43.0896 44.2193 35.992 47.8869C35.377 48.2044 35.1394 48.9595 35.4544 49.572C35.677 50.002 36.1145 50.2495 36.5669 50.2495C36.7619 50.2495 36.9569 50.2045 37.1394 50.1094C45.0721 46.0093 49.9997 37.9217 49.9997 28.9989V26.4989C49.9997 24.4315 48.3171 22.749 46.2497 22.749Z" fill="black"/>
<path d="M57.4074 48.5196C57.2124 48.0521 56.7573 47.7471 56.2524 47.7471H1.25112C0.746148 47.7471 0.291098 48.0521 0.0960933 48.5196C-0.0989113 48.9871 0.00855219 49.5246 0.3661 49.8822L3.1687 52.6872C4.82378 54.3397 7.01875 55.2498 9.35635 55.2498H48.1422C50.4798 55.2498 52.6774 54.3398 54.3349 52.6872L57.1375 49.8822C57.4949 49.5246 57.6024 48.9871 57.4074 48.5196ZM52.5649 50.9196C51.3849 52.0996 49.8123 52.7497 48.1448 52.7497H9.35635C7.68885 52.7497 6.11627 52.0996 4.93629 50.9196L4.26631 50.2497H53.2348L52.5649 50.9196Z" fill="black"/>
<path d="M57.5825 28.6516C54.2149 26.4865 48.8348 28.8367 48.2322 29.1091C47.6046 29.3966 47.3247 30.1366 47.6121 30.7667C47.8996 31.3967 48.6372 31.6742 49.2697 31.3867C50.4747 30.8392 54.3398 29.5417 56.2298 30.7592C57.0824 31.3067 57.4998 32.3692 57.4998 33.9992C57.4998 39.0043 47.4046 42.0294 43.507 42.7744L42.6219 42.9494C41.9445 43.0819 41.5044 43.7394 41.637 44.417C41.7545 45.0119 42.2769 45.4244 42.862 45.4244C42.942 45.4244 43.0219 45.4169 43.1044 45.3995L43.9819 45.227C44.6369 45.1019 59.9999 42.0894 59.9999 33.9992C60 31.4842 59.185 29.6866 57.5825 28.6516Z" fill="black"/>
<path d="M38.482 12.2789C40.5146 9.73881 40.5146 5.76126 38.482 3.22116C38.0494 2.68115 37.267 2.59115 36.7245 3.02616C36.1845 3.45871 36.0969 4.24365 36.5295 4.78366C37.8171 6.39116 37.8171 9.1088 36.527 10.7213C34.492 13.2614 34.492 17.239 36.527 19.7791C36.7745 20.0891 37.137 20.2491 37.5045 20.2491C37.777 20.2491 38.0545 20.1591 38.2845 19.9741C38.8245 19.5415 38.9121 18.754 38.4795 18.2166C37.1895 16.609 37.1895 13.8914 38.482 12.2789Z" fill="#FAC505"/>
<path d="M30.9718 12.2789C33.0068 9.73876 33.0068 5.7612 30.9718 3.2211C30.5418 2.68109 29.7543 2.59355 29.2143 3.0261C28.6743 3.45865 28.5868 4.24617 29.0193 4.7836C30.3093 6.3911 30.3093 9.10874 29.0168 10.7213C26.9843 13.2614 26.9843 17.2389 29.0168 19.779C29.2643 20.089 29.6268 20.2491 29.9943 20.2491C30.2668 20.2491 30.5418 20.1591 30.7743 19.974C31.3144 19.5415 31.4019 18.7565 30.9693 18.2165C29.6818 16.6089 29.6818 13.8914 30.9718 12.2789Z" fill="#FAC505"/>
<path d="M23.4817 12.2814C25.5142 9.74126 25.5142 5.7637 23.4817 3.2236C23.0517 2.68359 22.2666 2.59359 21.7242 3.0286C21.1866 3.45857 21.0992 4.24609 21.5291 4.78364C22.8167 6.39114 22.8167 9.10878 21.5267 10.7213C19.4917 13.2614 19.4917 17.239 21.5267 19.7791C21.7742 20.089 22.1367 20.2491 22.5042 20.2491C22.7766 20.2491 23.0541 20.1591 23.2842 19.9767C23.8242 19.5441 23.9117 18.7566 23.4792 18.2191C22.1892 16.609 22.1892 13.8939 23.4817 12.2814Z" fill="#FAC505"/>
</g>
<defs>
<clipPath id="clip0">
<rect width="60" height="59.0164" fill="white"/>
</clipPath>
</defs>
</svg>
