<svg width="220" height="220" viewBox="0 0 220 220" fill="none" xmlns="http://www.w3.org/2000/svg">
<path d="M179.037 0H40.963C18.3759 0 0 18.3759 0 40.963V154.629C0 177.216 18.3759 195.592 40.963 195.592H82.9213L105.443 218.112C106.7 219.371 108.35 220 110 220C111.648 220 113.298 219.371 114.557 218.112L137.077 195.592H179.035C201.622 195.592 219.998 177.216 219.998 154.629V40.963C220 18.3759 201.624 0 179.037 0ZM207.109 154.629C207.109 170.108 194.516 182.701 179.037 182.701H134.408C132.7 182.701 131.06 183.381 129.851 184.589L110 204.439L90.1488 184.589C88.9403 183.379 87.3021 182.701 85.5917 182.701H40.963C25.4842 182.701 12.8906 170.108 12.8906 154.629V40.963C12.8906 25.4842 25.4842 12.8906 40.963 12.8906H179.037C194.516 12.8906 207.109 25.4842 207.109 40.963V154.629Z" fill="#FAC505"/>
<path d="M59.2366 57.986H37.5122C36.6226 57.986 35.9009 58.7077 35.9009 59.5973V63.9261C35.9009 64.8157 36.6226 65.5374 37.5122 65.5374H44.3973V87.6143C44.3973 88.5056 45.119 89.2256 46.0086 89.2256H50.7402C51.6298 89.2256 52.3515 88.5056 52.3515 87.6143V65.5374H59.2366C60.1262 65.5374 60.8479 64.8157 60.8479 63.9261V59.5973C60.8479 58.7077 60.1262 57.986 59.2366 57.986Z" fill="black"/>
<path d="M69.0959 89.2256C69.9855 89.2256 70.7072 88.5056 70.7072 87.6143V77.7617H81.394V87.6143C81.394 88.5056 82.1158 89.2256 83.0054 89.2256H87.7336C88.6249 89.2256 89.3449 88.5056 89.3449 87.6143V59.5973C89.3449 58.7077 88.6249 57.986 87.7336 57.986H83.0054C82.1158 57.986 81.394 58.7077 81.394 59.5973V70.1314H70.7072V59.5973C70.7072 58.7077 69.9855 57.986 69.0959 57.986H64.3677C63.4764 57.986 62.7563 58.7077 62.7563 59.5973V87.6143C62.7563 88.5056 63.4764 89.2256 64.3677 89.2256H69.0959Z" fill="black"/>
<path d="M110.492 58.9478C110.235 58.3636 109.656 57.986 109.018 57.986H103.968C103.33 57.986 102.751 58.3636 102.492 58.9478L90.1472 86.9664C89.9273 87.4632 89.9743 88.0389 90.2731 88.4955C90.5685 88.952 91.0771 89.2273 91.6226 89.2273H96.6731C97.3109 89.2273 97.89 88.8496 98.1468 88.2639L100.53 82.8542H112.456L114.839 88.2639C115.096 88.8496 115.675 89.2273 116.313 89.2273H121.363H121.373C122.263 89.2273 122.985 88.5056 122.985 87.616C122.985 87.3256 122.908 87.0554 122.775 86.8204L110.492 58.9478ZM109.112 75.2608H103.874L106.494 69.3224L109.112 75.2608Z" fill="black"/>
<path d="M150.985 57.986H146.253C145.364 57.986 144.642 58.7077 144.642 59.5973V75.8247L131.253 58.6087C130.949 58.2159 130.479 57.986 129.982 57.986H125.25C124.361 57.986 123.639 58.7077 123.639 59.5973V87.616C123.639 88.5056 124.361 89.2273 125.25 89.2273H129.982C130.872 89.2273 131.593 88.5056 131.593 87.616V71.8753L144.58 88.6029C144.885 88.9973 145.355 89.2273 145.852 89.2273H150.983C151.873 89.2273 152.594 88.5056 152.594 87.616V59.5973C152.596 58.7077 151.874 57.986 150.985 57.986Z" fill="black"/>
<path d="M173.142 71.9827L183.515 60.6866C183.948 60.2167 184.06 59.5335 183.804 58.9494C183.545 58.3636 182.968 57.986 182.328 57.986H176.316C175.87 57.986 175.445 58.1706 175.141 58.4946L165.101 69.1931V59.5973C165.101 58.7077 164.379 57.986 163.489 57.986H158.759C157.87 57.986 157.148 58.7077 157.148 59.5973V87.6143C157.148 88.5056 157.87 89.2256 158.759 89.2256H163.489C164.379 89.2256 165.101 88.5056 165.101 87.6143V80.3918L167.454 77.854L175.593 88.5895C175.898 88.9906 176.373 89.2256 176.877 89.2256H182.488C183.094 89.2256 183.649 88.8866 183.925 88.3478C184.2 87.8073 184.149 87.1594 183.794 86.6693L173.142 71.9827Z" fill="black"/>
<path d="M92.1463 106.91C91.8627 106.4 91.3239 106.084 90.7414 106.084H85.5701C85.0044 106.084 84.4808 106.381 84.1887 106.866L77.9146 117.313L71.6405 106.866C71.3484 106.381 70.8248 106.084 70.2591 106.084H65.0878C64.5036 106.084 63.9665 106.4 63.6812 106.91C63.3959 107.419 63.4093 108.043 63.7148 108.54L73.898 125.106V135.714C73.898 136.604 74.6198 137.325 75.5094 137.325H80.3198C81.2094 137.325 81.9312 136.604 81.9312 135.714V125.106L92.1127 108.54C92.4199 108.041 92.4317 107.419 92.1463 106.91Z" fill="black"/>
<path d="M106.332 105.404C101.747 105.404 97.8343 106.954 94.704 110.01C91.5636 113.078 89.9707 116.945 89.9707 121.504C89.9707 126.065 91.5636 129.932 94.704 132.998C97.836 136.057 101.749 137.606 106.332 137.606C110.916 137.606 114.827 136.057 117.959 132.998C121.101 129.932 122.694 126.063 122.694 121.504C122.694 116.945 121.101 113.078 117.959 110.01C114.829 106.954 110.918 105.404 106.332 105.404ZM106.332 130.054C103.988 130.054 102.066 129.244 100.456 127.579C98.833 125.898 98.0441 123.913 98.0441 121.504C98.0441 119.097 98.833 117.11 100.456 115.43C102.066 113.765 103.988 112.954 106.332 112.954C108.677 112.954 110.599 113.765 112.207 115.428C113.832 117.112 114.622 119.099 114.622 121.504C114.622 123.911 113.832 125.898 112.207 127.579C110.599 129.244 108.679 130.054 106.332 130.054Z" fill="black"/>
<path d="M150.422 106.084H145.692C144.803 106.084 144.081 106.806 144.081 107.695V123.208C144.081 125.366 143.564 127.063 142.545 128.252C141.575 129.385 140.271 129.935 138.557 129.935C136.845 129.935 135.541 129.385 134.571 128.252C133.552 127.063 133.035 125.366 133.035 123.208V107.695C133.035 106.806 132.313 106.084 131.424 106.084H126.694C125.803 106.084 125.083 106.806 125.083 107.695V123.408C125.083 127.874 126.363 131.395 128.891 133.876C131.409 136.35 134.662 137.606 138.557 137.606C142.453 137.606 145.706 136.35 148.225 133.876C150.753 131.395 152.034 127.874 152.034 123.408V107.695C152.034 106.806 151.312 106.084 150.422 106.084Z" fill="black"/>
</svg>
