<svg width="161" height="43" viewBox="0 0 161 43" fill="none" xmlns="http://www.w3.org/2000/svg">
<rect x="0.5" y="0.5" width="160" height="42" rx="4.5" fill="black" stroke="white"/>
<path d="M57.4186 13.1633V6.30081H59.371C59.9725 6.30081 60.505 6.43244 60.9677 6.69571C61.4303 6.96073 61.7868 7.33632 62.039 7.82336C62.2911 8.3104 62.4185 8.8694 62.4211 9.50124V9.94001C62.4211 10.5868 62.2955 11.1537 62.0434 11.6407C61.8053 12.1133 61.4296 12.504 60.965 12.7622C60.498 13.0237 59.9539 13.1571 59.3329 13.1633H57.4186ZM58.3307 7.04497V12.4235H59.2905C59.9937 12.4235 60.5404 12.2067 60.9323 11.7732C61.3233 11.3388 61.5188 10.7219 61.5188 9.92071V9.51967C61.5188 8.7404 61.3339 8.13489 60.965 7.70314C60.5962 7.2705 60.0725 7.05111 59.3948 7.04497H58.3315H58.3307ZM63.6056 10.5666C63.6056 10.0664 63.7047 9.61707 63.9028 9.21779C64.101 8.81938 64.3761 8.51136 64.7291 8.2946C65.0829 8.07785 65.4854 7.96991 65.9383 7.96991C66.639 7.96991 67.2051 8.20948 67.6368 8.6895C68.0703 9.17128 68.2861 9.81013 68.2861 10.6087V10.6701C68.2861 11.166 68.1897 11.6117 67.9986 12.0058C67.8066 12.4007 67.5324 12.7078 67.1759 12.9272C66.8203 13.1475 66.4107 13.2572 65.9481 13.2572C65.251 13.2572 64.6866 13.0167 64.254 12.5367C63.8223 12.0558 63.6056 11.4196 63.6056 10.6271V10.5657V10.5666ZM64.4902 10.6701C64.4902 11.2353 64.622 11.6898 64.8865 12.0321C65.151 12.3743 65.5049 12.5455 65.9481 12.5455C66.3948 12.5455 66.7495 12.3726 67.0123 12.0251C67.275 11.6776 67.4068 11.1914 67.4068 10.5666C67.4068 10.0067 67.2732 9.55389 67.0052 9.20638C66.8834 9.04013 66.7226 8.90579 66.5367 8.81497C66.3508 8.72416 66.1455 8.67959 65.9383 8.68512C65.5049 8.68512 65.1546 8.85711 64.8883 9.19936C64.6229 9.5416 64.4902 10.0322 64.4902 10.6701ZM74.1166 11.961L75.1047 8.06293H75.984L74.4873 13.1633H73.7752L72.5252 9.29852L71.3088 13.1633H70.5958L69.1044 8.06293H69.9784L70.9904 11.8812L72.1881 8.06381H72.8958L74.1166 11.961ZM77.8851 8.06293L77.9143 8.70354C78.307 8.21387 78.8201 7.96903 79.4535 7.96903C80.5398 7.96903 81.0883 8.57718 81.098 9.79346V13.1633H80.2187V9.7882C80.2151 9.4205 80.1302 9.14934 79.9648 8.97295C79.7985 8.79744 79.5393 8.70969 79.1881 8.70969C78.9024 8.70969 78.652 8.78428 78.4362 8.93522C78.2202 9.08735 78.0472 9.2919 77.9337 9.52932V13.1633H77.0544V8.06293H77.886H77.8851ZM83.5563 13.1633H82.677V5.92346H83.5563V13.1633ZM84.9063 10.5657C84.9063 10.0664 85.0053 9.61795 85.2035 9.21779C85.4017 8.81938 85.6768 8.51136 86.0306 8.2946C86.3836 8.07785 86.787 7.96991 87.2399 7.96991C87.9396 7.96991 88.5058 8.20948 88.9383 8.6895C89.3709 9.17128 89.5868 9.81013 89.5868 10.6087V10.6701C89.5868 11.166 89.4912 11.6117 89.2993 12.0058C89.1073 12.4007 88.834 12.7078 88.4766 12.9272C88.121 13.1475 87.7114 13.2572 87.2487 13.2572C86.5525 13.2572 85.9873 13.0167 85.5556 12.5367C85.1221 12.0558 84.9063 11.4196 84.9063 10.6271V10.5657ZM85.7909 10.6701C85.7909 11.2353 85.9227 11.6898 86.1872 12.0321C86.4517 12.3743 86.8064 12.5455 87.2487 12.5455C87.6955 12.5455 88.0502 12.3726 88.3138 12.0251C88.5765 11.6776 88.7075 11.1914 88.7075 10.5666C88.7075 10.0067 88.5748 9.55389 88.3058 9.20638C88.1841 9.04025 88.0234 8.90599 87.8377 8.81518C87.652 8.72437 87.4469 8.67973 87.2399 8.68512C86.8064 8.68512 86.4552 8.85711 86.1898 9.19936C85.9236 9.5416 85.79 10.0322 85.79 10.6701H85.7909ZM94.0382 13.1633C93.9877 13.0623 93.9462 12.8833 93.9143 12.6262C93.5056 13.0474 93.0182 13.258 92.4512 13.258C91.9443 13.258 91.5285 13.115 91.2038 12.8307C91.047 12.6975 90.9219 12.5315 90.8378 12.3445C90.7536 12.1575 90.7125 11.9542 90.7173 11.7495C90.7173 11.2186 90.9208 10.8062 91.3277 10.5122C91.7346 10.2182 92.307 10.0716 93.0447 10.0716H93.9002V9.6706C93.9002 9.36609 93.8081 9.12301 93.625 8.94224C93.441 8.76146 93.1703 8.67107 92.8121 8.67107C92.4989 8.67107 92.2362 8.75005 92.0239 8.90713C91.8116 9.06422 91.7054 9.25465 91.7054 9.47754H90.8208C90.8208 9.22305 90.9128 8.97734 91.095 8.7404C91.2764 8.50258 91.5241 8.31479 91.8355 8.17614C92.1477 8.03836 92.4901 7.96903 92.8643 7.96903C93.457 7.96903 93.9205 8.11558 94.2567 8.40956C94.5928 8.70354 94.7671 9.10809 94.7786 9.62322V11.9707C94.7786 12.4393 94.8396 12.8114 94.9599 13.0878V13.1633H94.0382ZM92.5794 12.499C92.8554 12.499 93.1164 12.4287 93.3632 12.2866C93.6109 12.1453 93.7896 11.9619 93.9002 11.7355V10.6886H93.211C92.1345 10.6886 91.5957 11.001 91.5957 11.6267C91.5957 11.9005 91.6877 12.1137 91.8717 12.2673C92.0548 12.4217 92.291 12.499 92.5794 12.499ZM96.1205 10.571C96.1205 9.7882 96.3072 9.15899 96.6814 8.68336C97.0547 8.20685 97.5439 7.96903 98.1498 7.96903C98.7514 7.96903 99.2273 8.1735 99.5794 8.58156V5.92346H100.459V13.1633H99.651L99.6077 12.6165C99.2565 13.0439 98.7673 13.2572 98.1392 13.2572C97.5439 13.2572 97.0591 13.0158 96.6831 12.5314C96.3081 12.0479 96.1205 11.4169 96.1205 10.6368V10.571ZM96.999 10.6701C96.999 11.2484 97.1201 11.7004 97.3608 12.0277C97.6014 12.3542 97.934 12.5174 98.3586 12.5174C98.9159 12.5174 99.3228 12.269 99.5794 11.7732V9.43016C99.3167 8.94926 98.9124 8.70881 98.3675 8.70881C97.9366 8.70881 97.6014 8.87379 97.3608 9.20375C97.1201 9.53371 96.999 10.0225 96.999 10.6693V10.6701ZM104.352 10.5666C104.352 10.0664 104.451 9.61707 104.649 9.21779C104.847 8.81938 105.122 8.51136 105.475 8.2946C105.829 8.07785 106.232 7.96991 106.685 7.96991C107.385 7.96991 107.951 8.20948 108.383 8.6895C108.817 9.17128 109.032 9.81013 109.032 10.6087V10.6701C109.032 11.166 108.936 11.6117 108.745 12.0058C108.553 12.4007 108.279 12.7078 107.922 12.9272C107.567 13.1475 107.157 13.2572 106.694 13.2572C105.997 13.2572 105.433 13.0167 105 12.5367C104.568 12.0558 104.352 11.4196 104.352 10.6271V10.5657V10.5666ZM105.236 10.6701C105.236 11.2353 105.368 11.6898 105.633 12.0321C105.897 12.3743 106.251 12.5455 106.694 12.5455C107.141 12.5455 107.496 12.3726 107.759 12.0251C108.021 11.6776 108.153 11.1914 108.153 10.5666C108.153 10.0067 108.019 9.55389 107.751 9.20638C107.63 9.04013 107.469 8.90579 107.283 8.81497C107.097 8.72416 106.892 8.67959 106.685 8.68512C106.251 8.68512 105.901 8.85711 105.635 9.19936C105.369 9.5416 105.236 10.0322 105.236 10.6701ZM111.143 8.06381L111.171 8.70442C111.564 8.21387 112.077 7.96903 112.711 7.96903C113.797 7.96903 114.345 8.57718 114.354 9.79346V13.1633H113.476V9.7882C113.472 9.4205 113.387 9.14934 113.221 8.97295C113.055 8.79744 112.796 8.70969 112.444 8.70969C112.159 8.70969 111.909 8.78428 111.694 8.93522C111.478 9.08712 111.304 9.2917 111.19 9.52932V13.1633H110.312V8.06293H111.143V8.06381ZM119.635 6.82822V8.06293H120.595V8.73777H119.635V11.9005C119.635 12.1041 119.679 12.2576 119.764 12.3594C119.849 12.4621 119.995 12.513 120.201 12.513C120.302 12.513 120.442 12.4937 120.619 12.456V13.1633C120.399 13.2244 120.172 13.256 119.944 13.2572C119.551 13.2572 119.256 13.1396 119.056 12.9044C118.856 12.6683 118.757 12.334 118.757 11.9005V8.73777H117.821V8.06293H118.757V6.82822H119.635ZM122.678 8.68073C123.068 8.20685 123.574 7.96991 124.198 7.96991C125.285 7.96991 125.832 8.57718 125.842 9.79346V13.1633H124.963V9.7882C124.96 9.4205 124.875 9.14934 124.709 8.97295C124.542 8.79744 124.284 8.70969 123.932 8.70969C123.647 8.70969 123.397 8.78428 123.181 8.93522C122.965 9.08724 122.791 9.2918 122.678 9.52932V13.1633H121.798V5.92346H122.678V8.68073H122.678ZM129.469 13.2572C128.772 13.2572 128.204 13.0307 127.768 12.5762C127.331 12.1225 127.112 11.5143 127.112 10.7544V10.5947C127.112 10.0883 127.209 9.63726 127.404 9.23973C127.599 8.8422 127.871 8.53067 128.221 8.30601C128.559 8.0851 128.955 7.96788 129.359 7.96903C130.028 7.96903 130.547 8.18754 130.918 8.62456C131.288 9.06071 131.473 9.6864 131.473 10.4999V10.8632H127.991C128.004 11.366 128.152 11.7723 128.435 12.0812C128.718 12.391 129.079 12.5463 129.516 12.5463C129.826 12.5463 130.089 12.4832 130.305 12.3577C130.524 12.2286 130.716 12.0588 130.871 11.8575L131.407 12.2725C130.976 12.929 130.33 13.2572 129.469 13.2572ZM129.359 8.68512C129.005 8.68512 128.706 8.81324 128.466 9.06948C128.225 9.32573 128.076 9.68465 128.019 10.1462H130.595V10.0804C130.568 9.63726 130.449 9.29414 130.233 9.05105C130.018 8.80709 129.726 8.68512 129.359 8.68512Z" fill="white"/>
<path fill-rule="evenodd" clip-rule="evenodd" d="M66.0277 32.4317L65.8313 31.8727L65.3802 30.5835C65.2302 30.154 65.0798 29.7245 64.929 29.2953L64.7317 28.7363H59.601L58.305 32.4308H56.6154L61.3711 19.5211H62.9616L67.7173 32.4317H66.0277ZM62.1398 21.4798L61.9293 22.0757C61.7895 22.4723 61.6179 22.962 61.4162 23.5473C61.2127 24.1318 61.0093 24.7162 60.8032 25.3007L60.2848 26.7723L60.0751 27.3673H64.2585L62.1929 21.4807H62.1398V21.4798ZM73.8495 22.697C75.0773 22.697 76.0725 23.1472 76.835 24.0484C77.5976 24.9488 77.9797 26.1361 77.9797 27.6086C77.9797 29.0829 77.6011 30.2694 76.8439 31.1697C76.0875 32.071 75.1012 32.5212 73.8857 32.5212C73.2002 32.5212 72.5924 32.3764 72.0617 32.0868C71.5376 31.8039 71.104 31.381 70.8099 30.8661H70.7745V35.6523H69.2194V22.7865H70.694V24.352H70.7294C71.0099 23.8518 71.4327 23.4499 71.9988 23.1489C72.5678 22.8469 73.2042 22.6915 73.8495 22.697ZM73.5637 31.1338C74.4156 31.1338 75.0994 30.8134 75.6152 30.172C76.1309 29.5313 76.3883 28.6766 76.3883 27.6095C76.3883 26.5415 76.1309 25.6877 75.6152 25.0453C75.0994 24.4047 74.4156 24.0835 73.5628 24.0835C72.7348 24.0835 72.0617 24.4082 71.5433 25.0593C71.0249 25.7087 70.7657 26.56 70.7657 27.6086C70.7657 28.6591 71.0249 29.5085 71.5442 30.1588C72.0617 30.8091 72.7348 31.1338 73.5637 31.1338ZM84.4693 22.697C85.6962 22.697 86.6914 23.1472 87.4549 24.0484C88.2174 24.9488 88.5987 26.1361 88.5987 27.6086C88.5987 29.0829 88.22 30.2694 87.4637 31.1697C86.7065 32.071 85.721 32.5212 84.5047 32.5212C83.8191 32.5212 83.2114 32.3764 82.6815 32.0868C82.1575 31.8039 81.7238 31.381 81.4297 30.8661H81.3944V35.6523H79.8383V22.7865H81.3139V24.352H81.3492C81.6297 23.8518 82.0525 23.4499 82.6187 23.1489C83.1877 22.8469 83.824 22.6915 84.4693 22.697ZM84.1827 31.1338C85.0354 31.1338 85.7192 30.8134 86.235 30.172C86.7498 29.5313 87.0072 28.6766 87.0072 27.6095C87.0072 26.5415 86.7507 25.6877 86.2341 25.0453C85.7192 24.4047 85.0354 24.0835 84.1827 24.0835C83.3547 24.0835 82.6815 24.4082 82.1631 25.0593C81.6447 25.7087 81.3846 26.56 81.3846 27.6086C81.3846 28.6591 81.6447 29.5085 82.1631 30.1588C82.6815 30.8091 83.3547 31.1338 84.1827 31.1338ZM94.6415 28.8793H96.2594C96.3373 29.577 96.6796 30.1377 97.2873 30.5616C97.8951 30.9854 98.6585 31.1969 99.5759 31.1969C100.445 31.1969 101.166 30.9898 101.734 30.5748C102.304 30.1606 102.588 29.6367 102.588 29.0039C102.588 28.4563 102.39 28.0053 101.994 27.6534C101.597 27.3024 100.964 27.0154 100.094 26.7951L98.44 26.3651C96.1524 25.7807 95.0077 24.6451 95.0077 22.9567C95.0077 21.8826 95.4323 21.0059 96.2815 20.3258C97.1308 19.6457 98.2259 19.3061 99.567 19.3061C100.848 19.3061 101.909 19.6484 102.749 20.3346C103.589 21.0209 104.027 21.9063 104.063 22.9927H102.454C102.383 22.3003 102.085 21.7554 101.561 21.3552C101.035 20.955 100.353 20.7558 99.513 20.7558C98.6788 20.7558 97.9977 20.9524 97.4705 21.3464C96.9432 21.7396 96.6796 22.2529 96.6796 22.8848C96.6796 23.3744 96.8716 23.7755 97.2564 24.0879C97.6403 24.4012 98.271 24.6715 99.1468 24.8979L100.497 25.2559C101.832 25.5894 102.791 26.0343 103.374 26.5898C103.958 27.1435 104.25 27.8833 104.25 28.8082C104.25 29.9885 103.817 30.9231 102.95 31.6129C102.083 32.3018 100.907 32.6458 99.4237 32.6458C98.0587 32.6458 96.9406 32.3035 96.0675 31.6173C95.1944 30.931 94.7193 30.0184 94.6415 28.8793ZM106.664 20.6128H108.219V22.7865H110.097V24.0747H108.219V29.8639C108.219 30.3053 108.317 30.63 108.51 30.8389C108.704 31.0478 109.006 31.1522 109.417 31.1522C109.513 31.1522 109.635 31.146 109.784 31.1346C109.933 31.1223 110.035 31.1136 110.088 31.1074V32.4229C109.992 32.4466 109.848 32.4659 109.654 32.4808C109.465 32.4954 109.276 32.5027 109.086 32.5027C108.217 32.5027 107.596 32.3044 107.223 31.9078C106.851 31.5111 106.664 30.8512 106.664 29.9262V24.0747H105.323V22.7865H106.664V20.6128ZM116.015 32.5212C114.661 32.5212 113.583 32.0754 112.779 31.1838C111.974 30.2913 111.572 29.1005 111.572 27.6086C111.572 26.1115 111.974 24.9189 112.779 24.03C113.584 23.141 114.661 22.697 116.015 22.697C117.367 22.697 118.446 23.141 119.251 24.0309C120.055 24.9189 120.457 26.1115 120.457 27.6086C120.457 29.1005 120.055 30.2913 119.251 31.1838C118.446 32.0754 117.366 32.5212 116.015 32.5212ZM116.015 31.1346C116.914 31.1346 117.616 30.8222 118.12 30.1992C118.623 29.5761 118.875 28.7126 118.875 27.6086C118.875 26.4994 118.623 25.6341 118.119 25.0146C117.616 24.3942 116.914 24.0844 116.014 24.0844C115.114 24.0844 114.413 24.3959 113.909 25.019C113.405 25.642 113.154 26.5056 113.154 27.6086C113.154 28.7126 113.407 29.5761 113.914 30.1992C114.421 30.8222 115.12 31.1338 116.015 31.1338V31.1346ZM122.317 32.4317V22.7865H123.782V24.352H123.818C123.949 23.8619 124.252 23.4339 124.672 23.1445C125.098 22.8462 125.592 22.697 126.151 22.697C126.367 22.6955 126.582 22.7135 126.795 22.7505V24.281C126.689 24.2474 126.579 24.2262 126.468 24.2178C126.295 24.1993 126.121 24.1905 125.946 24.1914C125.32 24.1914 124.817 24.4003 124.439 24.8171C124.061 25.2349 123.872 25.7842 123.872 26.4634V32.4308H122.317V32.4317ZM132.185 24.066C131.428 24.066 130.801 24.3161 130.303 24.8171C129.806 25.3182 129.53 25.9773 129.477 26.7951H134.777C134.76 25.9773 134.514 25.3182 134.04 24.8171C133.566 24.3169 132.948 24.066 132.185 24.066ZM134.741 29.6761H136.279C136.148 30.5046 135.707 31.1855 134.956 31.7208C134.205 32.2544 133.314 32.5212 132.283 32.5212C130.93 32.5212 129.856 32.0806 129.061 31.2013C128.265 30.3211 127.867 29.1356 127.867 27.6446C127.867 26.1475 128.264 24.9488 129.057 24.0484C129.849 23.1472 130.901 22.697 132.212 22.697C133.499 22.697 134.518 23.1208 135.268 23.9677C136.02 24.8145 136.395 25.9685 136.395 27.4305V28.0386H129.477V28.1281C129.477 29.0469 129.736 29.7806 130.254 30.329C130.773 30.8775 131.461 31.1522 132.319 31.1522C132.921 31.1522 133.441 31.0197 133.879 30.7538C134.316 30.4888 134.604 30.129 134.741 29.6761Z" fill="white"/>
<path d="M43.5452 30.5712C42.3722 32.2807 41.1594 33.9788 39.2442 34.0139C37.3591 34.0499 36.7549 32.902 34.6044 32.902C32.4512 32.902 31.7772 33.9788 29.9982 34.0499C28.1493 34.1192 26.7428 32.2044 25.561 30.5028C23.146 27.0251 21.3015 20.6681 23.7811 16.3786C25.009 14.2488 27.209 12.9009 29.593 12.8649C31.4092 12.8315 33.1244 14.0847 34.2328 14.0847C35.3439 14.0847 37.4263 12.5806 39.6148 12.8008C40.5304 12.8386 43.102 13.1694 44.7536 15.5765C44.6227 15.6625 41.684 17.3659 41.7193 20.9155C41.7556 25.155 45.4489 26.5643 45.4913 26.5845C45.4577 26.6837 44.9013 28.5959 43.5452 30.5712ZM35.504 8.14367C36.5169 6.96073 38.2295 6.07967 39.644 6.02087C39.8245 7.6654 39.1602 9.31169 38.18 10.4981C37.1981 11.6828 35.5898 12.6043 34.0117 12.4814C33.7967 10.8729 34.592 9.19498 35.5032 8.14367H35.504Z" fill="white"/>
</svg>
