<svg width="161" height="43" viewBox="0 0 161 43" fill="none" xmlns="http://www.w3.org/2000/svg">
<path d="M53.1 12.6327V4.81235H55.3076C55.9879 4.81235 56.5895 4.96274 57.1122 5.26352C57.635 5.5643 58.0379 5.9922 58.3207 6.54721C58.6072 7.10222 58.7522 7.73959 58.7558 8.45932V8.95883C58.7558 9.69646 58.6126 10.3428 58.3261 10.8978C58.0432 11.4528 57.6368 11.8789 57.1069 12.1761C56.5805 12.4733 55.9664 12.6255 55.2646 12.6327H53.1ZM54.1313 5.66098V11.7894H55.2162C56.0112 11.7894 56.6288 11.5423 57.0693 11.0482C57.5133 10.554 57.7353 9.85043 57.7353 8.93735V8.4808C57.7353 7.59278 57.5258 6.90349 57.1069 6.41293C56.6915 5.91879 56.1007 5.66814 55.3344 5.66098H54.1313ZM59.8998 9.67319C59.8998 9.10385 60.0108 8.59181 60.2328 8.13705C60.4584 7.6823 60.77 7.33139 61.1674 7.08432C61.5685 6.83725 62.025 6.71371 62.537 6.71371C63.3284 6.71371 63.9675 6.98764 64.4545 7.53549C64.9451 8.08334 65.1904 8.81202 65.1904 9.72153V9.79135C65.1904 10.3571 65.0812 10.8656 64.8627 11.3167C64.6479 11.7643 64.3382 12.1135 63.9335 12.3641C63.5325 12.6148 63.0706 12.7401 62.5478 12.7401C61.76 12.7401 61.1209 12.4662 60.6303 11.9183C60.1433 11.3705 59.8998 10.6454 59.8998 9.74301V9.67319ZM60.8989 9.79135C60.8989 10.4359 61.0475 10.9533 61.3447 11.3436C61.6454 11.7339 62.0465 11.929 62.5478 11.929C63.0527 11.929 63.4537 11.7321 63.7509 11.3382C64.0481 10.9408 64.1967 10.3858 64.1967 9.67319C64.1967 9.03582 64.0445 8.52019 63.7402 8.12631C63.4394 7.72885 63.0384 7.53012 62.537 7.53012C62.0465 7.53012 61.6508 7.72527 61.35 8.11557C61.0493 8.50587 60.8989 9.06446 60.8989 9.79135ZM71.582 11.263L72.6992 6.82114H73.6928L72.0009 12.6327H71.1953L69.7827 8.22836L68.4077 12.6327H67.602L65.9155 6.82114H66.9037L68.0478 11.1717L69.4013 6.82114H70.2016L71.582 11.263ZM75.6479 6.82114L75.6801 7.55161C76.1241 6.99301 76.7042 6.71371 77.4203 6.71371C78.6485 6.71371 79.268 7.40659 79.2787 8.79233V12.6327H78.2851V8.78696C78.2815 8.36801 78.1848 8.05828 77.9951 7.85776C77.8089 7.65724 77.517 7.55698 77.1196 7.55698C76.7973 7.55698 76.5144 7.64291 76.2709 7.81479C76.0274 7.98666 75.8377 8.21225 75.7016 8.49155V12.6327H74.7079V6.82114H75.6479ZM81.8569 12.6327H80.8632V4.38266H81.8569V12.6327ZM83.1889 9.67319C83.1889 9.10385 83.2999 8.59181 83.5219 8.13705C83.7475 7.6823 84.059 7.33139 84.4565 7.08432C84.8575 6.83725 85.3141 6.71371 85.8261 6.71371C86.6175 6.71371 87.2566 6.98764 87.7436 7.53549C88.2342 8.08334 88.4794 8.81202 88.4794 9.72153V9.79135C88.4794 10.3571 88.3702 10.8656 88.1518 11.3167C87.937 11.7643 87.6272 12.1135 87.2226 12.3641C86.8216 12.6148 86.3596 12.7401 85.8369 12.7401C85.0491 12.7401 84.4099 12.4662 83.9194 11.9183C83.4324 11.3705 83.1889 10.6454 83.1889 9.74301V9.67319ZM84.1879 9.79135C84.1879 10.4359 84.3365 10.9533 84.6337 11.3436C84.9345 11.7339 85.3356 11.929 85.8369 11.929C86.3417 11.929 86.7428 11.7321 87.04 11.3382C87.3372 10.9408 87.4858 10.3858 87.4858 9.67319C87.4858 9.03582 87.3336 8.52019 87.0292 8.12631C86.7285 7.72885 86.3274 7.53012 85.8261 7.53012C85.3356 7.53012 84.9399 7.72527 84.6391 8.11557C84.3383 8.50587 84.1879 9.06446 84.1879 9.79135ZM93.3134 12.6327C93.2561 12.5181 93.2096 12.314 93.1738 12.0204C92.7119 12.5002 92.1604 12.7401 91.5195 12.7401C90.9466 12.7401 90.4757 12.5789 90.1069 12.2567C89.7416 11.9308 89.559 11.5191 89.559 11.0213C89.559 10.4162 89.7882 9.94711 90.2465 9.61411C90.7084 9.27752 91.3565 9.10922 92.1909 9.10922H93.1577V8.65268C93.1577 8.30535 93.0538 8.02963 92.8461 7.82553C92.6384 7.61785 92.3323 7.51401 91.9277 7.51401C91.5732 7.51401 91.276 7.60353 91.0361 7.78256C90.7962 7.9616 90.6762 8.17823 90.6762 8.43246H89.6772C89.6772 8.14243 89.7792 7.86313 89.9833 7.59457C90.191 7.32244 90.4703 7.10759 90.8212 6.95004C91.1757 6.79249 91.5642 6.71371 91.9868 6.71371C92.6564 6.71371 93.1809 6.88201 93.5605 7.2186C93.94 7.55161 94.137 8.01173 94.1513 8.59897V11.2738C94.1513 11.8073 94.2193 12.2316 94.3554 12.5467V12.6327H93.3134ZM91.6645 11.8753C91.976 11.8753 92.2714 11.7948 92.5507 11.6336C92.83 11.4725 93.0323 11.263 93.1577 11.0052V9.81284H92.3788C91.1614 9.81284 90.5527 10.1691 90.5527 10.8817C90.5527 11.1932 90.6565 11.4367 90.8642 11.6122C91.0719 11.7876 91.3386 11.8753 91.6645 11.8753ZM95.4672 9.67856C95.4672 8.78696 95.6785 8.07081 96.101 7.53012C96.5235 6.98585 97.0768 6.71371 97.7607 6.71371C98.441 6.71371 98.9799 6.94646 99.3774 7.41196V4.38266H100.371V12.6327H99.4579L99.4096 12.0096C99.0121 12.4966 98.4589 12.7401 97.7499 12.7401C97.0768 12.7401 96.5271 12.4644 96.101 11.9129C95.6785 11.3615 95.4672 10.6418 95.4672 9.75375V9.67856ZM96.4609 9.79135C96.4609 10.4502 96.5969 10.9658 96.8691 11.3382C97.1412 11.7106 97.5172 11.8968 97.997 11.8968C98.6272 11.8968 99.0873 11.6139 99.3774 11.0482V8.37875C99.0802 7.8309 98.6236 7.55698 98.0078 7.55698C97.5208 7.55698 97.1412 7.74496 96.8691 8.12094C96.5969 8.49692 96.4609 9.05372 96.4609 9.79135ZM52.6811 22.6732C52.6811 22.1039 52.7921 21.5918 53.0141 21.1371C53.2397 20.6823 53.5512 20.3314 53.9487 20.0843C54.3497 19.8372 54.8063 19.7137 55.3183 19.7137C56.1096 19.7137 56.7488 19.9876 57.2358 20.5355C57.7263 21.0833 57.9716 21.812 57.9716 22.7215V22.7914C57.9716 23.3571 57.8624 23.8656 57.644 24.3167C57.4291 24.7643 57.1194 25.1135 56.7148 25.3641C56.3137 25.6148 55.8518 25.7401 55.329 25.7401C54.5413 25.7401 53.9021 25.4662 53.4116 24.9183C52.9246 24.3705 52.6811 23.6454 52.6811 22.743V22.6732ZM53.6801 22.7914C53.6801 23.4359 53.8287 23.9533 54.1259 24.3436C54.4267 24.7339 54.8277 24.929 55.329 24.929C55.8339 24.929 56.235 24.7321 56.5322 24.3382C56.8294 23.9408 56.978 23.3858 56.978 22.6732C56.978 22.0358 56.8258 21.5202 56.5214 21.1263C56.2206 20.7289 55.8196 20.5301 55.3183 20.5301C54.8277 20.5301 54.4321 20.7253 54.1313 21.1156C53.8305 21.5059 53.6801 22.0645 53.6801 22.7914ZM60.1577 19.8211L60.1899 20.5516C60.6339 19.993 61.214 19.7137 61.9301 19.7137C63.1583 19.7137 63.7778 20.4066 63.7885 21.7923V25.6327H62.7949V21.787C62.7913 21.368 62.6946 21.0583 62.5048 20.8578C62.3186 20.6572 62.0268 20.557 61.6293 20.557C61.3071 20.557 61.0242 20.6429 60.7807 20.8148C60.5372 20.9867 60.3474 21.2122 60.2114 21.4915V25.6327H59.2177V19.8211H60.1577Z" fill="white"/>
<rect x="0.5" y="0.5" width="160" height="42" rx="4.5" fill="black" stroke="white"/>
<path d="M65.2342 27.2506V28.8469H69.0292C68.9142 29.742 68.6161 30.3966 68.1649 30.8573C67.6094 31.4155 66.7442 32.0245 65.2342 32.0245C62.897 32.0245 61.0703 30.1307 61.0703 27.7833C61.0703 25.4349 62.897 23.5412 65.2342 23.5412C66.493 23.5412 67.4156 24.0405 68.0933 24.682L69.2105 23.5605C68.2675 22.6391 67.0025 21.9388 65.2342 21.9388C62.0319 21.9388 59.34 24.5591 59.34 27.7763C59.34 30.9934 62.0319 33.6137 65.2342 33.6137C66.9636 33.6137 68.2684 33.0433 69.2875 31.9797C70.334 30.9284 70.6631 29.4436 70.6631 28.2501C70.6631 27.8798 70.6365 27.5367 70.579 27.2506H65.2342ZM75.4073 25.9536C73.3355 25.9536 71.6441 27.5367 71.6441 29.7227C71.6441 31.8885 73.3355 33.4909 75.4073 33.4909C77.4799 33.4909 79.1713 31.8955 79.1713 29.7227C79.1713 27.5367 77.4799 25.9536 75.4073 25.9536ZM75.4073 32.0052C74.2714 32.0052 73.2904 31.0653 73.2904 29.7227C73.2904 28.3668 74.2714 27.4393 75.4073 27.4393C76.544 27.4393 77.525 28.3668 77.525 29.7227C77.525 31.0653 76.5431 32.0052 75.4073 32.0052ZM93.8568 26.7969H93.7984C93.4304 26.3555 92.721 25.9545 91.8231 25.9545C89.9512 25.9545 88.3182 27.5955 88.3182 29.7227C88.3182 31.8376 89.9512 33.4909 91.8231 33.4909C92.721 33.4909 93.4304 33.0889 93.7984 32.6344H93.8568V33.16C93.8568 34.5992 93.089 35.3715 91.8558 35.3715C90.8482 35.3715 90.2228 34.6457 89.9645 34.0288L88.5314 34.6255C88.9445 35.6251 90.0353 36.851 91.8558 36.851C93.786 36.851 95.419 35.7093 95.419 32.9266V26.1484H93.8568V26.7978V26.7969ZM91.9655 32.0052C90.8288 32.0052 89.9645 31.0328 89.9645 29.7227C89.9645 28.3923 90.8288 27.4393 91.9655 27.4393C93.089 27.4393 93.9665 28.4125 93.9665 29.7349C93.9727 31.0513 93.089 32.0052 91.9655 32.0052ZM83.7996 25.9536C81.727 25.9536 80.0356 27.5367 80.0356 29.7227C80.0356 31.8885 81.727 33.4909 83.7996 33.4909C85.8714 33.4909 87.5628 31.8955 87.5628 29.7227C87.5628 27.5367 85.8714 25.9536 83.7996 25.9536ZM83.7996 32.0052C82.6629 32.0052 81.6818 31.0653 81.6818 29.7227C81.6818 28.3668 82.6638 27.4393 83.7996 27.4393C84.9355 27.4393 85.9165 28.3668 85.9165 29.7227C85.9165 31.0653 84.9355 32.0052 83.7996 32.0052ZM96.7097 22.0941H98.3303V33.4909H96.7097V22.0941ZM103.333 32.0052C102.494 32.0052 101.9 31.6226 101.513 30.8644L106.529 28.7819L106.361 28.3537C106.051 27.5112 105.096 25.9536 103.152 25.9536C101.222 25.9536 99.6148 27.4779 99.6148 29.7227C99.6148 31.8376 101.203 33.4909 103.333 33.4909C105.05 33.4909 106.044 32.4334 106.457 31.8235L105.179 30.9679C104.753 31.591 104.172 32.0052 103.333 32.0052ZM103.217 27.3682C103.882 27.3682 104.45 27.7113 104.637 28.1984L101.249 29.6059C101.249 28.0228 102.365 27.3682 103.217 27.3682Z" fill="white"/>
<path d="M60.0724 14.9184V8.05591H62.0248C62.6263 8.05591 63.1589 8.18754 63.6215 8.4508C64.0842 8.71582 64.4407 9.09142 64.6928 9.57846C64.9449 10.0655 65.0723 10.6245 65.075 11.2563V11.6951C65.075 12.3419 64.9493 12.9088 64.6972 13.3958C64.4592 13.8684 64.0835 14.2591 63.6189 14.5173C63.1518 14.7788 62.6078 14.9122 61.9868 14.9184H60.0724ZM60.9845 8.80007V14.1786H61.9443C62.6476 14.1786 63.1943 13.9618 63.5861 13.5283C63.9771 13.0939 64.1726 12.477 64.1726 11.6758V11.2748C64.1726 10.4955 63.9878 9.88999 63.6189 9.45823C63.25 9.0256 62.7263 8.80621 62.0487 8.80007H60.9854H60.9845ZM66.2595 12.3217C66.2595 11.8215 66.3585 11.3722 66.5567 10.9729C66.7548 10.5745 67.0299 10.2665 67.3829 10.0497C67.7368 9.83295 68.1393 9.72501 68.5922 9.72501C69.2928 9.72501 69.859 9.96458 70.2906 10.4446C70.7241 10.9264 70.94 11.5652 70.94 12.3638V12.4252C70.94 12.921 70.8435 13.3668 70.6524 13.7609C70.4605 14.1558 70.1863 14.4629 69.8298 14.6823C69.4741 14.9026 69.0646 15.0123 68.6019 15.0123C67.9048 15.0123 67.3405 14.7718 66.9079 14.2918C66.4762 13.8109 66.2595 13.1747 66.2595 12.3822V12.3208V12.3217ZM67.1441 12.4252C67.1441 12.9904 67.2759 13.4449 67.5404 13.7872C67.8049 14.1294 68.1587 14.3006 68.6019 14.3006C69.0486 14.3006 69.4034 14.1277 69.6661 13.7802C69.9288 13.4327 70.0606 12.9465 70.0606 12.3217C70.0606 11.7618 69.9271 11.309 69.659 10.9615C69.5372 10.7952 69.3764 10.6609 69.1905 10.5701C69.0047 10.4793 68.7993 10.4347 68.5922 10.4402C68.1587 10.4402 67.8084 10.6122 67.5421 10.9545C67.2768 11.2967 67.1441 11.7873 67.1441 12.4252ZM76.7704 13.7161L77.7586 9.81803H78.6379L77.1411 14.9184H76.429L75.179 11.0536L73.9627 14.9184H73.2497L71.7582 9.81803H72.6322L73.6442 13.6363L74.842 9.81891H75.5497L76.7704 13.7161ZM80.5389 9.81803L80.5681 10.4586C80.9609 9.96897 81.474 9.72413 82.1073 9.72413C83.1936 9.72413 83.7421 10.3323 83.7518 11.5486V14.9184H82.8725V11.5433C82.869 11.1756 82.7841 10.9044 82.6186 10.728C82.4523 10.5525 82.1931 10.4648 81.8419 10.4648C81.5562 10.4648 81.3059 10.5394 81.09 10.6903C80.8741 10.8424 80.7011 11.047 80.5876 11.2844V14.9184H79.7083V9.81803H80.5398H80.5389ZM86.2102 14.9184H85.3309V7.67856H86.2102V14.9184ZM87.5601 12.3208C87.5601 11.8215 87.6592 11.373 87.8573 10.9729C88.0555 10.5745 88.3306 10.2665 88.6845 10.0497C89.0374 9.83295 89.4408 9.72501 89.8937 9.72501C90.5935 9.72501 91.1596 9.96458 91.5922 10.4446C92.0248 10.9264 92.2406 11.5652 92.2406 12.3638V12.4252C92.2406 12.921 92.1451 13.3668 91.9531 13.7609C91.7611 14.1558 91.4878 14.4629 91.1304 14.6823C90.7748 14.9026 90.3652 15.0123 89.9026 15.0123C89.2064 15.0123 88.6411 14.7718 88.2094 14.2918C87.7759 13.8109 87.5601 13.1747 87.5601 12.3822V12.3208ZM88.4447 12.4252C88.4447 12.9904 88.5765 13.4449 88.841 13.7872C89.1055 14.1294 89.4603 14.3006 89.9026 14.3006C90.3493 14.3006 90.704 14.1277 90.9676 13.7802C91.2304 13.4327 91.3613 12.9465 91.3613 12.3217C91.3613 11.7618 91.2286 11.309 90.9597 10.9615C90.8379 10.7953 90.6773 10.6611 90.4916 10.5703C90.3059 10.4795 90.1007 10.4348 89.8937 10.4402C89.4603 10.4402 89.1091 10.6122 88.8437 10.9545C88.5774 11.2967 88.4438 11.7873 88.4438 12.4252H88.4447ZM96.692 14.9184C96.6416 14.8174 96.6 14.6384 96.5681 14.3813C96.1595 14.8025 95.672 15.0131 95.105 15.0131C94.5981 15.0131 94.1823 14.8701 93.8577 14.5858C93.7008 14.4526 93.5758 14.2866 93.4916 14.0996C93.4075 13.9126 93.3663 13.7093 93.3711 13.5046C93.3711 12.9737 93.5746 12.5613 93.9815 12.2673C94.3884 11.9733 94.9608 11.8267 95.6986 11.8267H96.554V11.4257C96.554 11.1212 96.462 10.8781 96.2789 10.6973C96.0949 10.5166 95.8242 10.4262 95.4659 10.4262C95.1528 10.4262 94.89 10.5052 94.6777 10.6622C94.4654 10.8193 94.3593 11.0097 94.3593 11.2326H93.4746C93.4746 10.9782 93.5666 10.7324 93.7489 10.4955C93.9302 10.2577 94.1779 10.0699 94.4893 9.93123C94.8016 9.79346 95.1439 9.72413 95.5181 9.72413C96.1108 9.72413 96.5743 9.87068 96.9105 10.1647C97.2466 10.4586 97.4209 10.8632 97.4324 11.3783V13.7258C97.4324 14.1944 97.4935 14.5665 97.6138 14.8429V14.9184H96.692ZM95.2333 14.254C95.5093 14.254 95.7702 14.1838 96.017 14.0417C96.2647 13.9004 96.4434 13.717 96.554 13.4906V12.4437H95.8649C94.7883 12.4437 94.2496 12.7561 94.2496 13.3818C94.2496 13.6556 94.3416 13.8688 94.5256 14.0224C94.7087 14.1768 94.9449 14.254 95.2333 14.254ZM98.7744 12.3261C98.7744 11.5433 98.961 10.9141 99.3352 10.4385C99.7085 9.96195 100.198 9.72413 100.804 9.72413C101.405 9.72413 101.881 9.9286 102.233 10.3367V7.67856H103.113V14.9184H102.305L102.262 14.3716C101.91 14.799 101.421 15.0123 100.793 15.0123C100.198 15.0123 99.7129 14.7709 99.337 14.2865C98.9619 13.803 98.7744 13.172 98.7744 12.3919V12.3261ZM99.6528 12.4252C99.6528 13.0035 99.774 13.4555 100.015 13.7828C100.255 14.1093 100.588 14.2725 101.012 14.2725C101.57 14.2725 101.977 14.0241 102.233 13.5283V11.1853C101.97 10.7044 101.566 10.4639 101.021 10.4639C100.59 10.4639 100.255 10.6289 100.015 10.9588C99.774 11.2888 99.6528 11.7776 99.6528 12.4244V12.4252ZM107.006 12.3217C107.006 11.8215 107.105 11.3722 107.303 10.9729C107.501 10.5745 107.776 10.2665 108.129 10.0497C108.483 9.83295 108.886 9.72501 109.338 9.72501C110.039 9.72501 110.605 9.96458 111.037 10.4446C111.47 10.9264 111.686 11.5652 111.686 12.3638V12.4252C111.686 12.921 111.59 13.3668 111.399 13.7609C111.207 14.1558 110.933 14.4629 110.576 14.6823C110.22 14.9026 109.811 15.0123 109.348 15.0123C108.651 15.0123 108.087 14.7718 107.654 14.2918C107.222 13.8109 107.006 13.1747 107.006 12.3822V12.3208V12.3217ZM107.89 12.4252C107.89 12.9904 108.022 13.4449 108.287 13.7872C108.551 14.1294 108.905 14.3006 109.348 14.3006C109.795 14.3006 110.15 14.1277 110.412 13.7802C110.675 13.4327 110.807 12.9465 110.807 12.3217C110.807 11.7618 110.673 11.309 110.405 10.9615C110.283 10.7952 110.123 10.6609 109.937 10.5701C109.751 10.4793 109.546 10.4347 109.338 10.4402C108.905 10.4402 108.555 10.6122 108.288 10.9545C108.023 11.2967 107.89 11.7873 107.89 12.4252ZM113.797 9.81891L113.825 10.4595C114.218 9.96897 114.731 9.72413 115.364 9.72413C116.451 9.72413 116.999 10.3323 117.008 11.5486V14.9184H116.13V11.5433C116.126 11.1756 116.041 10.9044 115.875 10.728C115.709 10.5525 115.45 10.4648 115.098 10.4648C114.813 10.4648 114.563 10.5394 114.348 10.6903C114.131 10.8422 113.958 11.0468 113.844 11.2844V14.9184H112.965V9.81803H113.797V9.81891Z" fill="white"/>
<path fill-rule="evenodd" clip-rule="evenodd" d="M118.97 29.29C118.97 30.6125 118.678 31.6611 118.093 32.4378C117.509 33.2135 116.725 33.6014 115.743 33.6014C114.584 33.6014 113.697 33.1942 113.08 32.379V36.7053H112.149V24.9637H113.018L113.065 26.1624C113.676 25.2585 114.56 24.8066 115.719 24.8066C116.733 24.8066 117.527 25.191 118.105 25.9588C118.682 26.7267 118.97 27.7929 118.97 29.1566V29.29ZM118.031 29.1259C118.031 28.0439 117.809 27.1891 117.365 26.5626C116.921 25.9351 116.302 25.6218 115.509 25.6218C114.934 25.6218 114.441 25.7605 114.029 26.0369C113.616 26.3142 113.3 26.7161 113.081 27.2444V31.3128C113.305 31.7989 113.626 32.1692 114.044 32.4255C114.462 32.6817 114.955 32.8099 115.525 32.8099C116.312 32.8099 116.928 32.4948 117.368 31.8656C117.81 31.2355 118.031 30.322 118.031 29.1259ZM122.095 33.4443H121.155V21.4043H122.095V33.4443ZM129.989 33.4443C129.895 33.1784 129.835 32.7835 129.808 32.2614C129.479 32.6903 129.048 33.031 128.552 33.253C128.045 33.485 127.493 33.604 126.934 33.6014C126.12 33.6014 125.461 33.3741 124.957 32.9196C124.453 32.465 124.202 31.8902 124.202 31.1952C124.202 30.3694 124.545 29.7165 125.231 29.2356C125.918 28.7547 126.874 28.5142 128.101 28.5142H129.801V27.5498C129.801 26.9443 129.615 26.4669 129.241 26.1194C128.868 25.7719 128.323 25.5981 127.608 25.5981C126.956 25.5981 126.415 25.7649 125.987 26.1001C125.559 26.4336 125.345 26.8372 125.345 27.3067L124.405 27.2988C124.405 26.6249 124.718 26.0413 125.345 25.5472C125.971 25.0532 126.742 24.8066 127.655 24.8066C128.6 24.8066 129.345 25.0435 129.891 25.5157C130.437 25.9895 130.717 26.6486 130.733 27.4954V31.5085C130.733 32.329 130.819 32.9432 130.991 33.3513V33.4443H129.989ZM127.044 32.7704C127.671 32.7704 128.231 32.6194 128.725 32.3158C129.202 32.0312 129.578 31.6069 129.801 31.1013V29.2356H128.125C127.191 29.2461 126.459 29.4172 125.932 29.749C125.405 30.0807 125.141 30.537 125.141 31.1171C125.141 31.5918 125.318 31.9867 125.67 32.3C126.022 32.6142 126.481 32.7704 127.044 32.7704ZM135.917 32.0964L138.392 24.9637H139.402L135.784 34.887L135.597 35.3258C135.131 36.3552 134.414 36.8703 133.442 36.8703C133.218 36.8703 132.978 36.8334 132.722 36.7606L132.714 35.984L133.2 36.0313C133.66 36.0313 134.032 35.9173 134.316 35.6909C134.6 35.4627 134.842 35.0722 135.041 34.5185L135.455 33.3741L132.26 24.9637H133.286L135.918 32.0964H135.917Z" fill="white"/>
<path d="M42.7835 17.1184L25.8856 7.64961C25.4071 7.38371 24.6707 7.5 24.6074 7.43549L38.4481 21.5386L42.7835 17.1184Z" stroke="#F3F3F3" stroke-width="2.2"/>
<path d="M42.8065 25.9799L48.5742 22.747C49.7437 22.0888 49.7437 21.0182 48.5742 20.3627L42.7844 17.1184L38.448 21.5377L42.8056 25.979" stroke="#F3F3F3" stroke-width="2.2"/>
<path d="M24.6065 7.4346C24 7.4346 23.7599 8.12787 23.7599 8.93083L23.7625 34.1788C23.7625 34.9722 24.0854 35.4952 24.5843 35.6689L38.448 21.5404L24.6065 7.4346Z" stroke="#F3F3F3" stroke-width="2.2"/>
<path d="M24.5835 35.668C24.9444 35.7927 25.3947 35.7347 25.8856 35.4601L42.803 25.9799L38.448 21.5412L24.5844 35.6698" stroke="#F3F3F3" stroke-width="2.2"/>
</svg>
