<svg width="60" height="48" viewBox="0 0 60 48" fill="none" xmlns="http://www.w3.org/2000/svg">
<g clip-path="url(#clip0)">
<path d="M44.4031 2.34645C45.8357 0.520201 46.0859 -1.78025 45.1272 -4.3062C44.4425 -6.11011 43.3703 -7.40336 43.325 -7.45745C42.9737 -7.87786 42.3478 -7.93371 41.9274 -7.5821C41.507 -7.23079 41.4514 -6.60607 41.8016 -6.18566C41.8498 -6.12716 45.2498 -1.94871 42.8414 1.1217C39.3735 5.54357 43.071 11.3754 43.2301 11.6215C43.42 11.9152 43.739 12.0751 44.0644 12.0751C44.249 12.0751 44.4357 12.0237 44.6021 11.9161C45.0619 11.6185 45.1942 11.0044 44.8967 10.544C44.8661 10.497 41.8113 5.65058 44.4031 2.34645Z" fill="#FAC505"/>
<path d="M51.0631 2.34645C52.4957 0.520201 52.7459 -1.78025 51.7872 -4.3062C51.1022 -6.11011 50.03 -7.40336 49.9847 -7.45745C49.6337 -7.87786 49.0075 -7.93371 48.5871 -7.5821C48.1673 -7.23108 48.1112 -6.60636 48.4613 -6.18596C48.496 -6.14392 51.9145 -1.95488 49.5011 1.1217C46.0332 5.54357 49.731 11.3754 49.8901 11.6215C50.08 11.9152 50.3987 12.0751 50.7241 12.0751C50.9087 12.0751 51.0954 12.0237 51.2621 11.9161C51.7222 11.6185 51.8542 11.0044 51.5567 10.544C51.5264 10.497 48.4713 5.65058 51.0631 2.34645Z" fill="#FAC505"/>
<path d="M9.39938 2.80642C10.832 0.980164 11.0822 -1.32029 10.1235 -3.84624C9.43848 -5.65015 8.3666 -6.9434 8.32133 -6.99749C7.97001 -7.4179 7.34441 -7.47375 6.92371 -7.12214C6.50389 -6.77112 6.44774 -6.1464 6.79788 -5.726C6.83287 -5.68395 10.2511 -1.49492 7.83801 1.58166C4.36954 6.00354 8.06732 11.8351 8.22666 12.0814C8.41658 12.3751 8.73526 12.5351 9.06071 12.5351C9.24533 12.5351 9.43201 12.4836 9.59841 12.376C10.0585 12.0785 10.1905 11.4641 9.89269 11.004C9.86241 10.9569 6.80729 6.11055 9.39938 2.80642Z" fill="#FAC505"/>
<path d="M16.0594 2.80642C17.492 0.980164 17.7422 -1.32029 16.7838 -3.84624C16.0991 -5.65015 15.0269 -6.9434 14.9817 -6.99749C14.6303 -7.4179 14.0047 -7.47375 13.584 -7.12214C13.1642 -6.77112 13.1081 -6.1464 13.4582 -5.726C13.4932 -5.68395 16.9114 -1.49492 14.4981 1.58166C11.0296 6.00354 14.7274 11.8351 14.8864 12.0814C15.0763 12.3751 15.395 12.5351 15.7205 12.5351C15.9051 12.5351 16.0918 12.4836 16.2585 12.376C16.7185 12.0785 16.8505 11.4641 16.5527 11.004C16.5225 10.9569 13.4673 6.11055 16.0594 2.80642Z" fill="#FAC505"/>
<path d="M56.7062 33.9834H54.6015C54.1073 21.6056 44.4142 11.5548 32.1876 10.4935V9.48302C33.4291 8.74041 34.1999 7.40923 34.1999 5.9293C34.1999 3.63854 32.3357 1.77466 30.045 1.77466C30.03 1.77466 29.9703 1.77466 29.9553 1.77466C27.6643 1.77466 25.8004 3.63854 25.8004 5.9293C25.8004 7.40923 26.5715 8.7407 27.8124 9.48302V10.4935C15.5861 11.5548 5.89269 21.6053 5.3985 33.9834H3.29384C1.47758 33.9834 0 35.461 0 37.2769V38.5176C0 40.335 1.47758 41.8132 3.29355 41.8132H56.7065C58.5227 41.8132 60 40.335 60 38.5176V37.2769C59.9997 35.461 58.5221 33.9834 56.7062 33.9834ZM27.7842 5.9293C27.7842 4.73276 28.7579 3.75908 29.9547 3.75908C29.97 3.75908 30.0294 3.75908 30.0444 3.75908C31.2412 3.75908 32.2149 4.73276 32.2149 5.9293C32.2149 6.8239 31.6722 7.61532 30.8323 7.94488C30.4524 8.09393 30.2029 8.46053 30.2029 8.86859V10.4006H29.7963V8.86859C29.7963 8.46053 29.5464 8.09422 29.1668 7.94488C28.3269 7.61502 27.7842 6.8239 27.7842 5.9293ZM56.7062 39.8285H3.29325C2.57122 39.8285 1.98412 39.2402 1.98412 38.5173V37.2766C1.98412 36.5549 2.57151 35.9678 3.29325 35.9678H4.92459C4.93371 35.9681 4.94223 35.9693 4.95134 35.9693H40.5833C41.131 35.9693 41.5755 35.5251 41.5755 34.9771C41.5755 34.4294 41.131 33.9849 40.5833 33.9849H7.38557C7.90475 22.016 17.7798 12.4329 29.8633 12.3847H30.1361C42.2199 12.4329 52.0944 22.0157 52.6138 33.9849H47.001C46.453 33.9849 46.0088 34.4294 46.0088 34.9771C46.0088 35.5251 46.453 35.9693 47.001 35.9693L54.6632 35.9678H56.7059C57.4279 35.9678 58.015 36.5549 58.015 37.2766V38.5173H58.0153C58.0153 39.2402 57.4279 39.8285 56.7062 39.8285Z" fill="black"/>
</g>
<defs>
<clipPath id="clip0">
<rect width="60" height="46.7532" fill="white" transform="translate(0 0.467529)"/>
</clipPath>
</defs>
</svg>
