<svg width="230" height="230" viewBox="0 0 230 230" fill="none" xmlns="http://www.w3.org/2000/svg">
<path d="M115.087 75.8599C91.26 75.8599 71.876 95.2439 71.876 119.07C71.876 142.897 91.2603 162.281 115.087 162.281C138.913 162.281 158.297 142.897 158.297 119.07C158.297 95.2439 138.913 75.8599 115.087 75.8599ZM115.087 156.578C94.4047 156.578 77.5788 139.752 77.5788 119.07C77.5788 98.3886 94.4045 81.5627 115.087 81.5627C135.768 81.5627 152.594 98.3883 152.594 119.07C152.594 139.752 135.768 156.578 115.087 156.578Z" fill="black"/>
<path d="M140.665 105.132C139.91 103.75 138.178 103.241 136.795 103.996C136.749 104.021 136.706 104.05 136.662 104.077C135.383 104.869 134.93 106.529 135.659 107.865C137.523 111.278 138.508 115.153 138.508 119.07C138.508 131.985 128.001 142.492 115.086 142.492C102.17 142.492 91.6634 131.985 91.6634 119.07C91.6634 106.155 102.171 95.6482 115.086 95.6482C116.325 95.6482 117.569 95.7457 118.782 95.9382C120.287 96.1772 121.697 95.1917 122.013 93.7217C122.024 93.6706 122.037 93.6204 122.045 93.568C122.291 92.0125 121.23 90.5516 119.675 90.3052C118.167 90.0663 116.623 89.9451 115.085 89.9451C99.0258 89.9451 85.96 103.011 85.96 119.07C85.96 135.13 99.0255 148.196 115.085 148.196C131.145 148.196 144.211 135.13 144.211 119.07C144.211 114.201 142.985 109.381 140.665 105.132Z" fill="black"/>
<path d="M133.305 95.2422C133.174 95.111 133.028 94.9912 132.871 94.8886C132.717 94.7859 132.552 94.6975 132.378 94.6262C132.207 94.5549 132.027 94.5008 131.845 94.4637C131.477 94.3895 131.098 94.3895 130.73 94.4637C130.547 94.5008 130.371 94.5549 130.197 94.6262C130.026 94.6975 129.86 94.7859 129.706 94.8886C129.549 94.9912 129.404 95.111 129.27 95.2422C129.139 95.3733 129.022 95.5188 128.916 95.6756C128.814 95.8296 128.725 95.995 128.654 96.1689C128.609 96.2767 128.573 96.3885 128.542 96.5017C128.524 96.5681 128.505 96.6346 128.492 96.7022C128.455 96.8844 128.438 97.0726 128.438 97.2579C128.438 97.4461 128.455 97.6318 128.492 97.8171C128.529 97.9996 128.583 98.1764 128.654 98.3501C128.726 98.5215 128.814 98.6868 128.917 98.8408C129.022 98.9977 129.139 99.1431 129.27 99.2743C129.404 99.4054 129.55 99.5252 129.706 99.6307C129.86 99.7334 130.026 99.8218 130.197 99.8931C130.371 99.9643 130.548 100.019 130.73 100.056C130.916 100.093 131.104 100.109 131.289 100.109C131.474 100.109 131.663 100.092 131.845 100.056C132.028 100.019 132.207 99.9643 132.378 99.8931C132.528 99.8317 132.669 99.7559 132.804 99.6712C132.826 99.6572 132.85 99.6453 132.871 99.6307C133.028 99.5252 133.174 99.4054 133.305 99.2743C133.436 99.1431 133.556 98.9977 133.658 98.8408C133.761 98.6868 133.849 98.5215 133.921 98.3501C133.992 98.1764 134.046 97.9968 134.083 97.8171C134.12 97.6318 134.14 97.4461 134.14 97.2579C134.14 96.508 133.835 95.7723 133.305 95.2422Z" fill="black"/>
<path d="M187.928 159.908L178.679 84.5858C178.035 79.3435 176.389 74.3547 173.785 69.7585C172.187 66.9369 170.246 64.3132 168.016 61.9601L167.767 61.6975C165.866 59.6925 163.024 59.1582 160.524 60.3361C158.025 61.5138 156.628 64.0469 156.965 66.7889L168.688 162.271C168.726 162.577 168.778 162.879 168.843 163.175C169.817 167.613 173.78 170.783 178.301 170.782C178.693 170.782 179.09 170.759 179.489 170.71C182.638 170.323 185.252 168.458 186.72 165.896C186.874 165.626 187.016 165.349 187.144 165.064C187.273 164.78 187.388 164.489 187.489 164.192C187.943 162.856 188.111 161.4 187.928 159.908ZM162.626 66.0937C162.612 65.9794 162.574 65.6745 162.956 65.4946C163.061 65.4453 163.153 65.4262 163.232 65.4262C163.444 65.4262 163.571 65.5602 163.628 65.6206L163.877 65.8833C165.789 67.901 167.454 70.1504 168.823 72.569C171.055 76.5093 172.467 80.7864 173.019 85.2807L177.948 125.425L170.03 126.397L162.626 66.0937ZM182.02 162.548C181.5 163.864 180.295 164.864 178.795 165.049C176.611 165.318 174.617 163.759 174.349 161.576L170.725 132.058L178.643 131.086L182.267 160.604C182.351 161.285 182.256 161.949 182.02 162.548Z" fill="#FAC505"/>
<path d="M77.1673 62.4541C75.6035 62.2614 74.1814 63.3741 73.9895 64.937L71.396 86.0591C70.9917 89.3509 68.3314 91.8344 65.0393 92.0351L63.149 91.803L66.5598 64.0251C66.7517 62.4621 65.6401 61.0392 64.0769 60.847C62.5134 60.6534 61.091 61.7669 60.8991 63.3299L57.4884 91.1078L55.5964 90.8757C52.4511 89.8839 50.4712 86.831 50.8753 83.5395L53.4688 62.4176C53.6607 60.8547 52.5492 59.4318 50.9859 59.2396C49.423 59.0457 48.0001 60.1595 47.8082 61.7224L45.2147 82.8442C44.5659 88.129 47.2632 93.0839 51.8132 95.4604L42.1122 157.892C42.111 157.899 42.1099 157.906 42.1087 157.913C41.7149 160.582 42.3985 163.234 44.0333 165.379C45.6681 167.525 48.0431 168.888 50.7185 169.217L50.7704 169.223C51.1836 169.274 51.5959 169.299 52.0051 169.299C54.2604 169.299 56.4284 168.536 58.2141 167.096C60.324 165.394 61.6214 162.969 61.8675 160.27L67.6014 97.3995C72.5917 96.1947 76.4082 92.0394 77.0569 86.7543L79.6504 65.6322C79.8421 64.0693 78.7305 62.6463 77.1673 62.4541ZM56.1883 159.752C56.0834 160.901 55.5313 161.933 54.6334 162.657C53.7354 163.382 52.6113 163.705 51.4676 163.563L51.4157 163.557C50.2762 163.417 49.2653 162.837 48.5698 161.924C47.8757 161.013 47.5846 159.888 47.7494 158.755L57.3709 96.8397L59.621 97.116C59.6222 97.116 59.623 97.1163 59.6242 97.1166C59.625 97.1166 59.6259 97.1166 59.6268 97.1166L61.8752 97.3926L56.1883 159.752Z" fill="#FAC505"/>
<path d="M25.5942 152.644C22.5702 151.219 20.9359 148.601 20.0971 146.657C19.6633 145.65 18.6759 145 17.5819 145C16.4878 145 15.5005 145.65 15.0666 146.657C14.2279 148.601 12.5936 151.219 9.56982 152.644C8.60163 153.1 8 154.048 8 155.119C8 156.19 8.60163 157.139 9.56957 157.594C12.5938 159.019 14.2279 161.637 15.0666 163.582C15.5005 164.588 16.4878 165.238 17.5819 165.238C18.6759 165.238 19.6633 164.588 20.0971 163.581C20.9359 161.636 22.5702 159.019 25.5944 157.594C26.5624 157.138 27.1638 156.19 27.1638 155.119C27.1638 154.049 26.5624 153.1 25.5942 152.644ZM17.5821 160.071C16.5738 158.357 15.1001 156.532 12.9737 155.119C15.1004 153.707 16.5738 151.881 17.5821 150.168C18.5907 151.881 20.0641 153.707 22.1906 155.119C20.0639 156.531 18.5907 158.357 17.5821 160.071Z" fill="black"/>
<path d="M37.5942 126.644C34.5702 125.219 32.9359 122.601 32.0971 120.657C31.6633 119.65 30.6759 119 29.5819 119C28.4878 119 27.5005 119.65 27.0666 120.657C26.2279 122.601 24.5936 125.219 21.5698 126.644C20.6016 127.1 20 128.048 20 129.119C20 130.19 20.6016 131.139 21.5696 131.594C24.5938 133.019 26.2279 135.637 27.0666 137.582C27.5005 138.588 28.4878 139.238 29.5819 139.238C30.6759 139.238 31.6633 138.588 32.0971 137.581C32.9359 135.636 34.5702 133.019 37.5944 131.594C38.5624 131.138 39.1638 130.19 39.1638 129.119C39.1638 128.049 38.5624 127.1 37.5942 126.644ZM29.5821 134.071C28.5738 132.357 27.1001 130.532 24.9737 129.119C27.1004 127.707 28.5738 125.881 29.5821 124.168C30.5907 125.881 32.0641 127.707 34.1906 129.119C32.0639 130.531 30.5907 132.357 29.5821 134.071Z" fill="black"/>
<path d="M213.594 73.6437C210.57 72.2189 208.936 69.6014 208.097 67.6565C207.663 66.6502 206.676 66 205.582 66C204.488 66 203.5 66.6502 203.067 67.6565C202.228 69.6014 200.594 72.2189 197.57 73.6437C196.602 74.0998 196 75.0483 196 76.119C196 77.1901 196.602 78.1386 197.57 78.5944C200.594 80.0192 202.228 82.6367 203.067 84.5816C203.5 85.5879 204.488 86.2381 205.582 86.2381C206.676 86.2381 207.663 85.5879 208.097 84.5813C208.936 82.6365 210.57 80.0192 213.594 78.5941C214.562 78.1378 215.164 77.1896 215.164 76.1188C215.164 75.0485 214.562 74.1 213.594 73.6437ZM205.582 81.0708C204.574 79.3572 203.1 77.5316 200.974 76.1193C203.1 74.7071 204.574 72.8814 205.582 71.1679C206.591 72.8814 208.064 74.7071 210.191 76.1193C208.064 77.5313 206.591 79.3569 205.582 81.0708Z" fill="black"/>
</svg>
