<svg width="164" height="164" viewBox="0 0 164 164" fill="none" xmlns="http://www.w3.org/2000/svg">
<path d="M5.46667 16.4H0V147.6H16.4V107.732L21.8667 102.265V35.5333C21.8667 26.6855 14.7026 16.4 5.46667 16.4ZM16.4 100.002L10.9333 105.468V142.133H5.46667V21.8667C11.3543 21.8667 16.4 29.3833 16.4 35.5333V100.002Z" fill="black" fill-opacity="0.8"/>
<path d="M161.267 16.4C159.757 16.4 158.533 17.6238 158.533 19.1333V43.7333H153.067V19.1333C153.067 17.6238 151.843 16.4 150.333 16.4C148.824 16.4 147.6 17.6238 147.6 19.1333V43.7333H142.133V19.1333C142.133 17.6238 140.91 16.4 139.4 16.4C137.891 16.4 136.667 17.6238 136.667 19.1333V65.6H142.133V147.6H158.533V65.6H164V19.1333C164 17.6238 162.776 16.4 161.267 16.4ZM158.533 60.1333H153.067V142.133H147.6V60.1333H142.133V49.2H158.533V60.1333Z" fill="black" fill-opacity="0.8"/>
<path d="M81.9999 27.3334C51.8082 27.3334 27.3333 51.8084 27.3333 82.0001C27.3333 112.192 51.8082 136.667 81.9999 136.667C112.192 136.667 136.667 112.192 136.667 82.0001C136.632 51.8227 112.177 27.3679 81.9999 27.3334ZM81.9999 131.2C54.8275 131.2 32.7999 109.172 32.7999 82.0001C32.7999 54.8277 54.8275 32.8001 81.9999 32.8001C109.172 32.8001 131.2 54.8277 131.2 82.0001C131.168 109.16 109.159 131.168 81.9999 131.2Z" fill="black" fill-opacity="0.8"/>
<path d="M82.0002 49.1043C63.8324 49.1043 49.1045 63.8322 49.1045 82C49.1045 100.168 63.8324 114.896 82.0002 114.896C100.168 114.896 114.896 100.168 114.896 82C114.875 63.8411 100.159 49.1255 82.0002 49.1043ZM82.0002 109.429C66.8517 109.429 54.5712 97.1485 54.5712 82C54.5712 66.8515 66.8517 54.571 82.0002 54.571C97.1486 54.571 109.429 66.8515 109.429 82C109.411 97.141 97.1411 109.411 82.0002 109.429Z" fill="black" fill-opacity="0.8"/>
</svg>
