<svg width="294" height="294" viewBox="0 0 294 294" fill="none" xmlns="http://www.w3.org/2000/svg">
<g clip-path="url(#clip0)">
<path d="M197.631 0C144.493 0 101.261 43.2311 101.261 96.3692C101.261 118.462 108.739 138.838 121.29 155.112L106.315 170.087C105.201 169.598 103.99 169.334 102.736 169.334C100.356 169.334 98.1187 170.261 96.4362 171.944L5.29814 263.082C-1.76474 270.145 -1.76474 281.638 5.29814 288.702C8.82957 292.233 13.4687 293.999 18.1084 293.999C22.748 293.999 27.3866 292.234 30.9186 288.702L122.056 197.564C124.722 194.899 125.334 190.953 123.909 187.691L138.889 172.71C155.162 185.262 175.538 192.74 197.631 192.74C250.769 192.74 294 149.508 294 96.3698C294 43.2311 250.769 0 197.631 0ZM24.8279 282.611C21.123 286.316 15.0943 286.316 11.3889 282.611C7.68401 278.906 7.68401 272.877 11.3889 269.172L86.597 193.964L100.036 207.403L24.8279 282.611ZM115.966 191.474L106.127 201.313L92.6878 187.874L102.527 178.034C102.548 178.013 102.614 177.948 102.736 177.948C102.859 177.948 102.924 178.013 102.946 178.034L115.965 191.054C116.081 191.17 116.081 191.359 115.966 191.474ZM118.255 181.163L112.838 175.746L126.869 161.715C128.603 163.591 130.41 165.398 132.286 167.132L118.255 181.163ZM197.631 184.126C149.242 184.126 109.875 144.759 109.875 96.3698C109.875 47.9811 149.242 8.61327 197.631 8.61327C246.02 8.61327 285.387 47.9805 285.387 96.3687C285.387 144.758 246.021 184.126 197.631 184.126Z" fill="black"/>
<path d="M255.954 51.8691C254.509 49.9799 251.807 49.6193 249.917 51.0646C248.027 52.5099 247.667 55.2128 249.113 57.102C268.716 82.7316 266.263 119.294 243.408 142.148C220.553 165.003 183.992 167.455 158.363 147.852C156.472 146.407 153.771 146.767 152.325 148.656C150.88 150.545 151.24 153.248 153.129 154.693C166.262 164.737 181.924 169.673 197.54 169.673C216.461 169.673 235.312 162.426 249.499 148.238C275.395 122.343 278.169 80.9136 255.954 51.8691Z" fill="black"/>
<path d="M242.132 38.0459C213.087 15.8306 171.656 18.6052 145.761 44.5001C119.866 70.3956 117.092 111.825 139.307 140.87C140.155 141.979 141.436 142.56 142.731 142.56C143.643 142.56 144.563 142.272 145.344 141.674C147.233 140.229 147.593 137.526 146.148 135.637C126.545 110.008 128.997 73.4459 151.852 50.5914C174.708 27.7364 211.269 25.2851 236.898 44.8883C238.788 46.3336 241.491 45.973 242.936 44.0838C244.382 42.1941 244.021 39.4912 242.132 38.0459Z" fill="black"/>
<path d="M122.973 9.20581H8.90136C6.52295 9.20581 4.59473 11.134 4.59473 13.5124C4.59473 15.8909 6.52295 17.8191 8.90136 17.8191H122.973C125.352 17.8191 127.28 15.8909 127.28 13.5124C127.28 11.1346 125.352 9.20581 122.973 9.20581Z" fill="#FAC505"/>
<path d="M102.979 32.2222H31.918C29.5396 32.2222 27.6113 34.1504 27.6113 36.5288C27.6113 38.9072 29.5396 40.8354 31.918 40.8354H102.979C105.358 40.8354 107.286 38.9072 107.286 36.5288C107.285 34.1504 105.357 32.2222 102.979 32.2222Z" fill="#FAC505"/>
<path d="M91.7582 55.2374H54.9331C52.5547 55.2374 50.6265 57.1656 50.6265 59.5441C50.6265 61.923 52.5547 63.8507 54.9331 63.8507H91.7582C94.1367 63.8507 96.0649 61.923 96.0649 59.5441C96.0649 57.1656 94.1367 55.2374 91.7582 55.2374Z" fill="#FAC505"/>
<path d="M224.942 72.9175L223.533 68.2788C221.743 63.0095 216.02 60.1894 210.751 61.9797C207.786 62.9868 205.459 65.3146 204.451 68.2788L203.042 72.9175C201.856 76.8295 201.607 80.9657 202.315 84.9916C202.961 88.3812 205.113 91.2932 208.164 92.9057L206.585 128.191C206.374 130.16 207.013 132.126 208.342 133.596C211.199 136.721 216.05 136.938 219.175 134.081C219.344 133.926 219.506 133.765 219.661 133.596C220.96 132.168 221.597 130.259 221.417 128.338L219.83 92.9013C222.876 91.288 225.024 88.3779 225.669 84.9916C226.377 80.9657 226.128 76.8295 224.942 72.9175ZM221.344 84.2277C220.869 86.6628 219.134 88.6608 216.789 89.4722C215.899 89.8067 215.326 90.6761 215.369 91.6258L217.037 128.685C217.114 129.412 216.874 130.136 216.379 130.674C215.057 131.982 212.928 131.982 211.606 130.674C211.086 130.093 210.849 129.311 210.961 128.54L212.616 91.6258C212.659 90.6761 212.085 89.8067 211.195 89.4722C208.851 88.6608 207.115 86.6628 206.64 84.2277C206.053 80.8853 206.26 77.4516 207.244 74.2039L208.653 69.5631C209.744 66.6145 213.018 65.1083 215.967 66.1988C217.526 66.7753 218.755 68.0044 219.331 69.5631L220.741 74.2039C221.724 77.4519 221.93 80.8853 221.344 84.2277Z" fill="#FAC505"/>
<path d="M190.942 61.4536C189.729 61.4536 188.746 62.4366 188.746 63.6489V82.4977L182.804 88.4404C182.364 88.8784 182.13 89.4823 182.161 90.1022L184.081 128.52C184.127 129.348 183.826 130.159 183.252 130.757C182.05 131.969 180.093 131.978 178.88 130.776C178.874 130.77 178.867 130.763 178.861 130.757C178.286 130.159 177.985 129.348 178.031 128.52L179.965 90.1022C179.996 89.4826 179.763 88.8789 179.324 88.4404L173.379 82.4977V63.6489C173.379 62.4366 172.396 61.4536 171.184 61.4536C169.972 61.4536 168.989 62.4366 168.989 63.6489V83.4066C168.989 83.9889 169.22 84.547 169.632 84.9587L175.529 90.8574L173.656 128.307C173.457 132.398 176.611 135.876 180.702 136.075C184.793 136.274 188.271 133.119 188.47 129.029C188.482 128.788 188.482 128.548 188.47 128.307L186.597 90.8577L192.494 84.9589C192.905 84.5473 193.137 83.9892 193.137 83.4069V63.6492C193.137 62.4366 192.154 61.4536 190.942 61.4536Z" fill="#FAC505"/>
<path d="M177.77 61.4536C176.558 61.4536 175.575 62.4366 175.575 63.6489V81.2113C175.575 82.4237 176.558 83.4066 177.77 83.4066C178.982 83.4066 179.965 82.4237 179.965 81.2113V63.6489C179.965 62.4366 178.982 61.4536 177.77 61.4536Z" fill="#FAC505"/>
<path d="M184.356 61.4536C183.144 61.4536 182.161 62.4366 182.161 63.6489V81.2113C182.161 82.4237 183.144 83.4066 184.356 83.4066C185.568 83.4066 186.551 82.4237 186.551 81.2113V63.6489C186.551 62.4366 185.568 61.4536 184.356 61.4536Z" fill="#FAC505"/>
</g>
<defs>
<clipPath id="clip0">
<rect width="294" height="294" fill="white"/>
</clipPath>
</defs>
</svg>
