<svg width="272" height="238" viewBox="0 0 272 238" fill="none" xmlns="http://www.w3.org/2000/svg">
<path d="M268.906 177.213C266.731 171.763 260.55 169.108 255.101 171.284C249.651 173.459 246.996 179.64 249.172 185.089C251.938 192.019 251.031 199.93 246.746 206.254C242.458 212.581 235.594 216.21 227.913 216.21H44.1302C35.7518 216.21 28.3116 211.838 24.2268 204.515C20.1357 197.179 20.328 188.534 24.7411 181.388L116.633 32.6092C120.817 25.8347 128.065 21.7903 136.022 21.7903C143.979 21.7903 151.226 25.8347 155.411 32.6092L223.372 142.644C226.455 147.636 233.003 149.185 237.994 146.1C242.985 143.017 244.533 136.47 241.45 131.478L173.488 21.4434C165.404 8.35551 151.398 0.54187 136.021 0.54187C120.644 0.54187 106.638 8.35604 98.5547 21.4434L6.66314 170.222C-1.856 184.017 -2.22681 200.706 5.67024 214.865C13.5609 229.012 27.9382 237.458 44.1302 237.458H227.913C242.755 237.458 256.031 230.428 264.336 218.172C272.579 206.007 274.287 190.695 268.906 177.213Z" fill="black"/>
<path d="M136.027 195.494C141.894 195.494 146.65 190.737 146.65 184.87C146.65 179.002 141.894 174.246 136.027 174.246H136.021C130.154 174.246 125.4 179.002 125.4 184.87C125.4 190.737 130.159 195.494 136.027 195.494Z" fill="black"/>
<path d="M146.645 147.685V69.5981C146.645 63.7305 141.889 58.9742 136.021 58.9742C130.154 58.9742 125.397 63.7305 125.397 69.5981V147.685C125.397 153.553 130.154 158.309 136.021 158.309C141.889 158.309 146.645 153.553 146.645 147.685Z" fill="black"/>
</svg>
