<svg width="16" height="16" viewBox="0 0 16 16" fill="none" xmlns="http://www.w3.org/2000/svg">
    <path d="M14.0141 0.636368H1.98589C1.25 0.636368 0.636368 1.25 0.636368 1.98589V14.0141C0.636368 14.75 1.25 15.3636 1.98589 15.3636H8V9.22728H6.1591V7.38637H8V5.54546C8 4.01137 8.61364 3.09091 10.4546 3.09091H12.2955V4.93182H11.4973C10.9459 4.93182 10.4546 5.42321 10.4546 5.97452V7.38637H12.9091L12.6023 9.22728H10.4546V15.3636H14.0141C14.75 15.3636 15.3636 14.75 15.3636 14.0141V1.98589C15.3636 1.25 14.75 0.636368 14.0141 0.636368V0.636368Z" fill="white"/>
</svg>
