<svg width="76" height="52" viewBox="0 0 76 52" fill="none" xmlns="http://www.w3.org/2000/svg">
<path d="M51.1734 22.9401C52.4628 22.0245 54.0059 21.5603 55.7599 21.5603H58.7198C59.5372 21.5603 60.1998 20.8977 60.1998 20.0803C60.1998 16 56.8802 12.6804 52.7999 12.6804H44.6602C43.8428 12.6804 43.1802 13.343 43.1802 14.1604C43.1802 14.9778 43.8428 15.6404 44.6602 15.6404H52.7999C54.7295 15.6404 56.3754 16.8775 56.9863 18.6003H19.014C19.6248 16.8775 21.2708 15.6404 23.2004 15.6404H31.3404C32.1578 15.6404 32.8204 14.9778 32.8204 14.1604C32.8204 13.343 32.1578 12.6804 31.3404 12.6804H23.2004C19.1201 12.6804 15.8005 16 15.8005 20.0803C15.8005 20.8977 16.4631 21.5603 17.2805 21.5603H20.2405C21.9932 21.5603 23.5349 22.0248 24.8232 22.9411C28.5538 25.5935 32.5691 27.1279 36.5202 27.4256V42.9678L28.2994 48.4483C27.7567 48.81 27.5148 49.4843 27.7038 50.1085C27.8928 50.7327 28.4681 51.1596 29.1203 51.1596H46.88C47.5322 51.1596 48.1075 50.7327 48.2965 50.1085C48.4855 49.4843 48.2437 48.81 47.7009 48.4483L39.4801 42.9678V27.4251C43.4266 27.1262 47.4406 25.5916 51.1734 22.9401ZM47.8862 21.5603C44.6547 23.5238 41.3572 24.5202 38.0608 24.5202H37.9336C34.6337 24.5202 31.3357 23.5238 28.1071 21.5603H47.8862ZM34.0084 48.1998L38.0002 45.5387L41.9919 48.1998H34.0084Z" fill="#FAC505"/>
<path d="M3.07274 33.1455V49.6797C3.07274 50.4971 3.73533 51.1597 4.55272 51.1597C5.37011 51.1597 6.03269 50.4971 6.03269 49.6797V42.2799H18.7605V49.6797C18.7605 50.4971 19.4231 51.1597 20.2404 51.1597C21.0578 51.1597 21.7204 50.4971 21.7204 49.6797V33.1455C23.443 32.5345 24.6804 30.8895 24.6804 28.9601C24.6804 26.5119 22.6886 24.5202 20.2404 24.5202H8.99264V8.24045C8.99264 4.16016 5.67306 0.840576 1.59277 0.840576C0.775378 0.840576 0.112793 1.50316 0.112793 2.32055V28.9601C0.112793 30.8894 1.3502 32.5345 3.07274 33.1455ZM6.03269 39.3199V33.4H18.7605V39.3199H6.03269ZM3.07274 4.05404C4.79558 4.66483 6.03269 6.31086 6.03269 8.24045V26.0001C6.03269 26.8175 6.69528 27.4801 7.51267 27.4801H20.2404C21.0565 27.4801 21.7204 28.144 21.7204 28.9601C21.7204 29.7762 21.0565 30.4401 20.2404 30.4401H4.55272C3.73666 30.4401 3.07274 29.7762 3.07274 28.9601V4.05404Z" fill="black"/>
<path d="M38.0002 15.6404C38.8176 15.6404 39.4802 14.9778 39.4802 14.1604C39.4802 13.343 38.8176 12.6804 38.0002 12.6804C37.1829 12.6804 36.5203 13.343 36.5203 14.1604C36.5203 14.9778 37.1829 15.6404 38.0002 15.6404Z" fill="black"/>
<path d="M74.4074 0.840576C70.3272 0.840576 67.0076 4.16016 67.0076 8.24045V24.5202H55.7598C53.3116 24.5202 51.3198 26.5119 51.3198 28.9601C51.3198 30.8894 52.5572 32.5345 54.2798 33.1455V49.6797C54.2798 50.4971 54.9424 51.1597 55.7598 51.1597C56.5771 51.1597 57.2397 50.4971 57.2397 49.6797V42.2799H69.9675V49.6797C69.9675 50.4971 70.6301 51.1597 71.4475 51.1597C72.2649 51.1597 72.9275 50.4971 72.9275 49.6797V33.1455C74.65 32.5345 75.8874 30.8895 75.8874 28.9601V2.32055C75.8874 1.50316 75.2248 0.840576 74.4074 0.840576ZM57.2397 39.3199V33.4H69.9675V39.3199H57.2397ZM72.9275 28.9601C72.9275 29.7762 72.2636 30.4401 71.4475 30.4401H55.7598C54.9437 30.4401 54.2798 29.7762 54.2798 28.9601C54.2798 28.144 54.9437 27.4801 55.7598 27.4801H68.4875C69.3049 27.4801 69.9675 26.8175 69.9675 26.0001V8.24045C69.9675 6.31086 71.2046 4.66498 72.9275 4.05404V28.9601Z" fill="black"/>
</svg>
