<svg width="199" height="161" viewBox="0 0 199 161" fill="none" xmlns="http://www.w3.org/2000/svg">
<path d="M89.5496 20.7998H109.45C111.281 20.7998 112.766 19.3149 112.766 17.4832C112.766 15.6514 111.281 14.1665 109.45 14.1665H89.5496C87.7178 14.1665 86.2329 15.6514 86.2329 17.4832C86.2329 19.3149 87.7178 20.7998 89.5496 20.7998Z" fill="#FAC505"/>
<path d="M145.933 20.7998H182.416C184.248 20.7998 185.733 19.3149 185.733 17.4832C185.733 15.6514 184.248 14.1665 182.416 14.1665H145.933C144.101 14.1665 142.616 15.6514 142.616 17.4832C142.616 19.3149 144.101 20.7998 145.933 20.7998Z" fill="#FAC505"/>
<path d="M182.417 0.899902H16.5833C7.42916 0.910868 0.0109653 8.32906 0 17.4832V143.517C0.0109653 152.671 7.42916 160.089 16.5833 160.1H182.417C191.571 160.089 198.989 152.671 199 143.517V17.4832C198.989 8.32906 191.571 0.910868 182.417 0.899902ZM16.5833 7.53324H182.417C187.912 7.53324 192.367 11.988 192.367 17.4832V27.4332H6.63333V17.4832C6.63333 11.988 11.0881 7.53324 16.5833 7.53324ZM182.417 153.467H16.5833C11.0881 153.467 6.63333 149.012 6.63333 143.517V34.0666H192.367V143.517C192.367 149.012 187.912 153.467 182.417 153.467Z" fill="black"/>
<path d="M16.5838 20.7998C18.4155 20.7998 19.9004 19.3149 19.9004 17.4832C19.9004 15.6514 18.4155 14.1665 16.5838 14.1665C14.752 14.1665 13.2671 15.6514 13.2671 17.4832C13.2671 19.3149 14.752 20.7998 16.5838 20.7998Z" fill="#FAC505"/>
<path d="M29.8494 20.7998C31.6811 20.7998 33.1661 19.3149 33.1661 17.4832C33.1661 15.6514 31.6811 14.1665 29.8494 14.1665C28.0176 14.1665 26.5327 15.6514 26.5327 17.4832C26.5327 19.3149 28.0176 20.7998 29.8494 20.7998Z" fill="#FAC505"/>
<path d="M43.1165 20.7998C44.9482 20.7998 46.4331 19.3149 46.4331 17.4832C46.4331 15.6514 44.9482 14.1665 43.1165 14.1665C41.2847 14.1665 39.7998 15.6514 39.7998 17.4832C39.7998 19.3149 41.2847 20.7998 43.1165 20.7998Z" fill="#FAC505"/>
<path d="M59.7008 107.033C59.7008 108.865 61.1858 110.35 63.0175 110.35C64.8493 110.35 66.3342 108.865 66.3342 107.033V100.4H72.9675C74.7993 100.4 76.2842 98.915 76.2842 97.0832C76.2842 95.2515 74.7993 93.7666 72.9675 93.7666H66.3342V87.1332C66.3342 85.3015 64.8493 83.8166 63.0175 83.8166C61.1858 83.8166 59.7008 85.3015 59.7008 87.1332V93.7666H42.4177L65.8433 55.7045C66.6855 54.1568 66.1705 52.2206 64.6705 51.2959C63.1706 50.3713 61.2094 50.7809 60.205 52.2286L36.7694 90.294C35.5118 92.3408 35.4591 94.9076 36.6317 97.0043C37.8042 99.101 40.0187 100.4 42.421 100.4H59.7008V107.033Z" fill="black"/>
<path d="M159.2 93.7664H152.567V87.1331C152.567 85.3013 151.082 83.8164 149.25 83.8164C147.419 83.8164 145.934 85.3013 145.934 87.1331V93.7664H128.651L152.076 55.7043C152.776 54.6956 152.861 53.3827 152.298 52.2918C151.735 51.2009 150.615 50.5105 149.387 50.4973C148.159 50.484 147.025 51.15 146.438 52.2285L123.002 90.2939C121.745 92.3407 121.692 94.9074 122.865 97.0041C124.037 99.1008 126.252 100.4 128.654 100.4H145.934V107.033C145.934 108.865 147.419 110.35 149.25 110.35C151.082 110.35 152.567 108.865 152.567 107.033V100.4H159.2C161.032 100.4 162.517 98.9148 162.517 97.0831C162.517 95.2513 161.032 93.7664 159.2 93.7664Z" fill="black"/>
<path d="M96.1829 110.35H102.816C110.143 110.35 116.083 104.41 116.083 97.0832V63.9166C116.083 56.5896 110.143 50.6499 102.816 50.6499H96.1829C88.8559 50.6499 82.9163 56.5896 82.9163 63.9166V97.0832C82.9163 104.41 88.8559 110.35 96.1829 110.35ZM89.5496 63.9166C89.5496 60.2531 92.5194 57.2832 96.1829 57.2832H102.816C106.48 57.2832 109.45 60.2531 109.45 63.9166V97.0832C109.45 100.747 106.48 103.717 102.816 103.717H96.1829C92.5194 103.717 89.5496 100.747 89.5496 97.0832V63.9166Z" fill="black"/>
<path d="M139.3 126.933H59.7002C57.8685 126.933 56.3835 128.418 56.3835 130.25C56.3835 132.082 57.8685 133.566 59.7002 133.566H139.3C141.132 133.566 142.617 132.082 142.617 130.25C142.617 128.418 141.132 126.933 139.3 126.933Z" fill="#FAC505"/>
<path d="M109.45 140.2H89.5496C87.7178 140.2 86.2329 141.685 86.2329 143.517C86.2329 145.349 87.7178 146.834 89.5496 146.834H109.45C111.281 146.834 112.766 145.349 112.766 143.517C112.766 141.685 111.281 140.2 109.45 140.2Z" fill="#FAC505"/>
</svg>
