<svg width="54" height="54" viewBox="0 0 54 54" fill="none" xmlns="http://www.w3.org/2000/svg">
<path d="M24.3871 38.279V27.871C24.3871 27.64 24.2953 27.4184 24.132 27.2551C23.9687 27.0918 23.7471 27 23.5161 27C18.1967 27 17.4509 36.127 17.4218 36.5153C17.4088 36.6877 17.4475 36.86 17.5328 37.0103C17.6181 37.1607 17.7462 37.2822 17.9008 37.3595L19.1613 37.9899V38.2795L18.4863 45.0303C18.45 45.3936 18.4902 45.7604 18.6043 46.1071C18.7184 46.4539 18.9039 46.7729 19.1489 47.0436C19.3938 47.3142 19.6927 47.5306 20.0264 47.6786C20.3601 47.8267 20.7211 47.9032 21.0861 47.9032H22.4623C22.8273 47.9032 23.1883 47.8267 23.522 47.6786C23.8556 47.5306 24.1546 47.3142 24.3995 47.0436C24.6445 46.7729 24.83 46.4539 24.9441 46.1071C25.0582 45.7604 25.0984 45.3936 25.0621 45.0303L24.3871 38.279ZM19.2211 36.0722C19.372 34.8509 19.6405 33.6471 20.0229 32.4774C20.6922 30.5078 21.5717 29.3093 22.6452 28.9007V37.4516H20.9032C20.9032 37.2899 20.8582 37.1313 20.7732 36.9937C20.6881 36.8562 20.5665 36.745 20.4218 36.6726L19.2211 36.0722ZM23.1078 45.8747C23.0265 45.9654 22.927 46.0378 22.8157 46.0872C22.7045 46.1366 22.584 46.1619 22.4623 46.1613H21.0861C20.9644 46.1613 20.844 46.1358 20.7327 46.0864C20.6215 46.0371 20.5218 45.9649 20.4401 45.8746C20.3585 45.7844 20.2966 45.678 20.2586 45.5623C20.2206 45.4467 20.2072 45.3243 20.2194 45.2032L20.8205 39.1935H22.7279L23.329 45.2032C23.3418 45.3244 23.3287 45.4469 23.2906 45.5627C23.2526 45.6785 23.1903 45.7848 23.1081 45.8747H23.1078Z" fill="#FAC505"/>
<path d="M52.2581 0H45.2903C45.0593 0 44.8378 0.0917624 44.6745 0.2551C44.5111 0.418439 44.4194 0.639973 44.4194 0.870968V1.74194H26.2359C25.4486 1.74249 24.6738 1.94002 23.9823 2.31656L15.4552 6.96774H5.22581C3.76062 6.96774 2.61291 8.49803 2.61291 10.4516C2.61291 12.275 3.61289 13.7286 4.93741 13.9149L1.01065 27.2081C1.00717 27.2199 1.0039 27.2319 1.00085 27.2438C0.914637 27.5892 0.871018 27.9438 0.870972 28.2998V53.129C0.870972 53.36 0.962734 53.5816 1.12607 53.7449C1.28941 53.9082 1.51094 54 1.74194 54H40.9355C41.1665 54 41.388 53.9082 41.5514 53.7449C41.7147 53.5816 41.8065 53.36 41.8065 53.129V28.3726C41.8065 27.9567 41.7469 27.5429 41.6294 27.1438L38.0005 14.8057C39.1823 14.797 40.3177 14.3446 41.1816 13.5381C42.0454 12.7317 42.5747 11.63 42.6645 10.4516H44.4194V12.1935C44.4194 12.4245 44.5111 12.6461 44.6745 12.8094C44.8378 12.9728 45.0593 13.0645 45.2903 13.0645H52.2581C52.4891 13.0645 52.7106 12.9728 52.8739 12.8094C53.0373 12.6461 53.129 12.4245 53.129 12.1935V0.870968C53.129 0.639973 53.0373 0.418439 52.8739 0.2551C52.7106 0.0917624 52.4891 0 52.2581 0ZM4.35484 10.4516C4.35484 9.38827 4.87067 8.70968 5.22581 8.70968H30.1232L26.6393 12.1935H5.22581C4.87067 12.1935 4.35484 11.515 4.35484 10.4516ZM31.4847 27.2439C31.3985 27.5893 31.3549 27.9439 31.3548 28.2999V52.2581H2.61291V28.2998C2.61299 28.0919 2.63781 27.8848 2.68683 27.6827L6.74761 13.9355H25.0635C24.6088 14.7037 24.4362 15.6063 24.5754 16.4881C24.7145 17.3698 25.1567 18.1755 25.8259 18.7663C26.495 19.3571 27.3492 19.6962 28.2414 19.7251C29.1336 19.754 30.0079 19.4709 30.7139 18.9246L34.904 15.6653L31.4945 27.2082C31.491 27.22 31.4878 27.232 31.4847 27.2439ZM36.5807 50.006L38.8328 52.2581H34.3285L36.5807 50.006ZM39.9584 27.6357C40.0288 27.875 40.0646 28.1232 40.0645 28.3726V51.0263L37.4516 48.4134V29.6129C37.4516 29.3819 37.3599 29.1604 37.1965 28.997C37.0332 28.8337 36.8116 28.7419 36.5807 28.7419C36.3497 28.7419 36.1281 28.8337 35.9648 28.997C35.8014 29.1604 35.7097 29.3819 35.7097 29.6129V48.4135L33.0968 51.0264V28.2998C33.0969 28.0919 33.1217 27.8848 33.1707 27.6827L36.5784 16.145L39.9584 27.6357ZM44.4194 8.70968H42.3261C41.9574 8.71011 41.604 8.85676 41.3433 9.11745C41.0826 9.37815 40.9359 9.73161 40.9355 10.1003C40.9346 10.8862 40.622 11.6396 40.0663 12.1953C39.5106 12.751 38.7571 13.0636 37.9713 13.0645H35.8302C35.5585 13.065 35.2946 13.1555 35.0799 13.322L29.6443 17.55C29.2239 17.8773 28.6945 18.032 28.164 17.9825C27.6335 17.933 27.1419 17.6831 26.7892 17.2837C26.4366 16.8843 26.2496 16.3654 26.2663 15.8329C26.2829 15.3004 26.502 14.7943 26.8789 14.4177L32.8416 8.45492C32.9635 8.33314 33.0466 8.17792 33.0802 8.00892C33.1139 7.83992 33.0967 7.66473 33.0308 7.50551C32.9649 7.3463 32.8532 7.21022 32.7099 7.11449C32.5666 7.01876 32.3981 6.96769 32.2258 6.96774H19.0931L24.8166 3.84576C25.2521 3.60861 25.74 3.4842 26.2359 3.48387H44.4194V8.70968ZM51.3871 11.3226H46.1613V1.74194H51.3871V11.3226Z" fill="black"/>
<path d="M16.5484 27.871C16.5484 27.64 16.4566 27.4184 16.2933 27.2551C16.1299 27.0918 15.9084 27 15.6774 27C15.4464 27 15.2249 27.0918 15.0615 27.2551C14.8982 27.4184 14.8064 27.64 14.8064 27.871V30.4839H13.0645V27.871C13.0645 27.64 12.9727 27.4184 12.8094 27.2551C12.6461 27.0918 12.4245 27 12.1935 27C11.9625 27 11.741 27.0918 11.5777 27.2551C11.4143 27.4184 11.3226 27.64 11.3226 27.871V30.4839H9.58062V27.871C9.58062 27.64 9.48886 27.4184 9.32552 27.2551C9.16218 27.0918 8.94065 27 8.70965 27C8.47866 27 8.25712 27.0918 8.09378 27.2551C7.93045 27.4184 7.83868 27.64 7.83868 27.871V31.3548H7.84032C7.83972 31.4899 7.87066 31.6233 7.93068 31.7444L9.56581 35.0148L8.8452 45.1042C8.81963 45.4621 8.86805 45.8214 8.98745 46.1598C9.10685 46.4981 9.29465 46.8083 9.53917 47.0709C9.78368 47.3335 10.0797 47.5429 10.4087 47.6861C10.7377 47.8293 11.0926 47.9032 11.4515 47.9032H12.9356C13.2944 47.9032 13.6494 47.8293 13.9784 47.6861C14.3074 47.5429 14.6034 47.3335 14.8479 47.0709C15.0924 46.8083 15.2802 46.4981 15.3996 46.1598C15.519 45.8214 15.5674 45.4621 15.5419 45.1042L14.8212 35.0148L16.4564 31.7444C16.5164 31.6233 16.5473 31.4899 16.5467 31.3548H16.5484V27.871ZM14.2682 32.2258L13.3972 33.9677H10.9898L10.1189 32.2258H14.2682ZM13.5731 45.8838C13.492 45.9718 13.3933 46.0419 13.2836 46.0897C13.1738 46.1374 13.0553 46.1618 12.9356 46.1613H11.4515C11.3319 46.1613 11.2135 46.1367 11.1039 46.0889C10.9942 46.0412 10.8956 45.9714 10.814 45.8839C10.7325 45.7964 10.6699 45.693 10.6301 45.5802C10.5903 45.4674 10.5742 45.3477 10.5827 45.2284L11.2626 35.7097H13.1243L13.8042 45.2284C13.8132 45.3477 13.7974 45.4675 13.7576 45.5804C13.7178 45.6932 13.655 45.7965 13.5731 45.8838Z" fill="#FAC505"/>
</svg>
