<svg width="60" height="60" viewBox="0 0 60 60" fill="none" xmlns="http://www.w3.org/2000/svg">
<path d="M55.6104 29.5743H53.6664C53.4844 26.5859 52.7645 23.7016 51.5187 20.9901C51.3286 20.575 50.8415 20.3952 50.4309 20.5875C50.0203 20.7801 49.8422 21.2726 50.0327 21.6877C51.1773 24.1798 51.8451 26.8291 52.0245 29.5743H14.5012C14.0488 29.5743 13.6822 29.9449 13.6822 30.4024C13.6822 30.8599 14.0488 31.2305 14.5012 31.2305H55.6104C56.0248 31.2305 56.3615 31.5713 56.3615 31.9904V33.0012C56.3615 33.4202 56.0248 33.761 55.6104 33.761H4.38959C3.97516 33.761 3.63849 33.4202 3.63849 33.0012V31.9904C3.63849 31.5713 3.97516 31.2305 4.38959 31.2305H10.6829C11.1354 31.2305 11.5024 30.8599 11.5024 30.4024C11.5024 29.9449 11.1354 29.5743 10.6829 29.5743H7.97546C8.33649 24.0722 10.6701 18.9537 14.6033 15.0824C18.3939 11.3518 23.2918 9.15566 28.5264 8.80749C28.5294 8.80749 28.5324 8.80792 28.5354 8.80749C28.7584 8.7928 28.9789 8.78157 29.1968 8.77336C29.2404 8.77207 29.2835 8.76991 29.3271 8.76861C29.4048 8.76602 29.4822 8.76429 29.5587 8.76256C29.7056 8.75997 29.8526 8.75738 30 8.75738C30.1957 8.75738 30.3914 8.76127 30.5866 8.76645C30.6443 8.76818 30.7015 8.76991 30.7596 8.77163C30.91 8.77682 31.06 8.78459 31.21 8.7928C31.2894 8.79712 31.3689 8.80144 31.4488 8.80662C38.1741 9.25329 44.3615 12.7894 48.2118 18.4596C48.4677 18.8362 48.9778 18.9326 49.3508 18.6734C49.7238 18.4146 49.8187 17.8989 49.5623 17.5217C45.7735 11.9419 39.8762 8.28739 33.3582 7.34482C33.7666 6.70376 33.996 5.9491 33.996 5.15859C33.996 4.70847 33.7974 3.87864 32.4669 3.38359C31.8026 3.1365 30.9263 3 30 3C29.0733 3 28.197 3.1365 27.5327 3.38359C26.2022 3.87864 26.004 4.70847 26.004 5.15859C26.004 5.94694 26.2325 6.70031 26.6384 7.34007C21.6896 8.04807 17.0997 10.3134 13.4604 13.8953C9.20892 18.0799 6.69714 23.6212 6.33356 29.5739H4.38959C3.07196 29.5743 2 30.6581 2 31.9904V33.0012C2 34.3338 3.07196 35.4177 4.38959 35.4177H13.2144C12.7739 35.7226 12.3517 36.0648 11.9565 36.4445L11.9403 36.46C11.9151 36.4838 11.8912 36.5093 11.8694 36.5365L7.98016 41.3115C7.49225 40.9984 6.91461 40.8843 6.34467 40.9949C5.75037 41.1098 5.23639 41.4519 4.89716 41.9582L3.36761 44.2386C2.66821 45.2818 2.93823 46.7069 3.96918 47.4149L14.4354 54.6039C14.8148 54.8644 15.2532 55 15.7022 55C15.8449 55 15.9889 54.9862 16.1324 54.9585C16.7263 54.8436 17.2403 54.5015 17.5795 53.9952L19.1091 51.7148C19.8085 50.6716 19.5389 49.2465 18.5079 48.5385L18.4481 48.4975C19.1766 47.6616 20.1477 47.0624 21.2043 46.8153C23.4307 46.2939 26.0505 46.6296 27.8275 46.9272C30.0256 47.2953 32.3345 47.1696 34.5045 46.5635L37.5208 45.7207C39.5302 45.1591 41.3793 44.2136 43.0173 42.9098C43.0297 42.8999 43.0417 42.89 43.0536 42.8792L48.2323 38.2419C49.115 37.559 49.3073 36.3762 49.0026 35.4177H55.6104C56.928 35.4177 58 34.3338 58 33.0016V31.9904C58 30.6581 56.928 29.5743 55.6104 29.5743ZM30 4.65663C31.3796 4.65663 32.2063 5.00178 32.3575 5.19358C32.3464 5.97934 31.9534 6.7042 31.3138 7.13876C31.1527 7.13012 30.9938 7.12321 30.8353 7.11717C30.7819 7.11544 30.7285 7.11285 30.675 7.11155C30.4465 7.10464 30.2209 7.10118 30 7.10118C29.8432 7.10118 29.6834 7.10334 29.5223 7.1068C29.4446 7.10809 29.3664 7.11025 29.2882 7.11285C29.1951 7.11587 29.1011 7.11889 29.0071 7.12278C28.8998 7.12753 28.7926 7.13228 28.6858 7.13833C28.0462 6.70376 27.6536 5.97891 27.6425 5.19358C27.7937 5.00178 28.6204 4.65663 30 4.65663ZM35.8746 35.8172C35.8135 35.6773 35.7405 35.5442 35.658 35.4177H43.5155L40.118 37.6911L35.2752 39.1076L35.1107 39.1115C36.043 38.3257 36.3831 36.984 35.8746 35.8172ZM26.9913 35.4177L25.8091 35.6669L24.8953 35.4177H26.9913ZM17.753 50.7852L16.2239 53.0656C16.1303 53.2056 15.9885 53.2997 15.8244 53.3317C15.6608 53.3632 15.4941 53.3287 15.3561 53.2336L4.88989 46.0447C4.60535 45.8494 4.53101 45.4563 4.72412 45.1687L6.25366 42.8878C6.34723 42.7483 6.48865 42.6537 6.65271 42.6222C6.69244 42.6144 6.73218 42.6105 6.77148 42.6105C6.89539 42.6105 7.0163 42.6481 7.12097 42.7202L7.68622 43.1081L17.5872 49.9087C17.8718 50.104 17.9461 50.4975 17.753 50.7852ZM47.227 36.9339C47.2073 36.9481 47.1885 36.9637 47.1702 36.9801L41.986 41.623C40.5244 42.782 38.8752 43.6235 37.0846 44.1237L34.0682 44.9665C32.126 45.5095 30.0607 45.6222 28.0958 45.2931C26.1808 44.9725 23.3456 44.6136 20.8347 45.2015C19.3804 45.5419 18.0525 46.3868 17.0865 47.5618L9.34351 42.2437L13.1016 37.6294C14.523 36.2725 16.3256 35.4669 18.0516 35.4177H18.085C18.6203 35.4086 19.1868 35.568 19.7863 35.7377C19.9067 35.7714 20.0268 35.8056 20.1473 35.8384L25.5716 37.3179C25.6959 37.3516 25.8262 37.3555 25.9523 37.3287L33.0565 35.8311C33.3787 35.7637 33.717 35.8298 33.9849 36.0133C34.158 36.1321 34.293 36.2954 34.3754 36.4851C34.619 37.0436 34.3895 37.6994 33.8452 37.9827L31.4214 39.2804C31.0861 39.4601 30.9169 39.8489 31.0121 40.2204C31.1078 40.5923 31.4424 40.8454 31.8226 40.8403L35.4179 40.7616C35.4893 40.7599 35.5598 40.7491 35.6277 40.7292L40.6935 39.2476C40.7734 39.2242 40.8491 39.1888 40.9183 39.1426L46.029 35.7222C46.4579 35.4544 47.0287 35.2341 47.3325 35.6872C47.5692 36.0397 47.5748 36.6743 47.227 36.9339Z" fill="black"/>
<path d="M55.6104 29.5743H53.6664C53.4844 26.5859 52.7645 23.7016 51.5187 20.9901C51.3286 20.575 50.8415 20.3952 50.4309 20.5875C50.0203 20.7801 49.8422 21.2726 50.0327 21.6877C51.1773 24.1798 51.8451 26.8291 52.0245 29.5743H14.5012C14.0488 29.5743 13.6822 29.9449 13.6822 30.4024C13.6822 30.8599 14.0488 31.2305 14.5012 31.2305H55.6104C56.0248 31.2305 56.3615 31.5713 56.3615 31.9904V33.0012C56.3615 33.4202 56.0248 33.761 55.6104 33.761H4.38959C3.97516 33.761 3.63849 33.4202 3.63849 33.0012V31.9904C3.63849 31.5713 3.97516 31.2305 4.38959 31.2305H10.6829C11.1354 31.2305 11.5024 30.8599 11.5024 30.4024C11.5024 29.9449 11.1354 29.5743 10.6829 29.5743H7.97546C8.33649 24.0722 10.6701 18.9537 14.6033 15.0824C18.3939 11.3518 23.2918 9.15566 28.5264 8.80749C28.5294 8.80749 28.5324 8.80792 28.5354 8.80749C28.7584 8.7928 28.9789 8.78157 29.1968 8.77336C29.2404 8.77207 29.2835 8.76991 29.3271 8.76861C29.4048 8.76602 29.4822 8.76429 29.5587 8.76256C29.7056 8.75997 29.8526 8.75738 30 8.75738C30.1957 8.75738 30.3914 8.76127 30.5866 8.76645C30.6443 8.76818 30.7015 8.76991 30.7596 8.77163C30.91 8.77682 31.06 8.78459 31.21 8.7928C31.2894 8.79712 31.3689 8.80144 31.4488 8.80662C38.1741 9.25329 44.3615 12.7894 48.2118 18.4596C48.4677 18.8362 48.9778 18.9326 49.3508 18.6734C49.7238 18.4146 49.8187 17.8989 49.5623 17.5217C45.7735 11.9419 39.8762 8.28739 33.3582 7.34482C33.7666 6.70376 33.996 5.9491 33.996 5.15859C33.996 4.70847 33.7974 3.87864 32.4669 3.38359C31.8026 3.1365 30.9263 3 30 3C29.0733 3 28.197 3.1365 27.5327 3.38359C26.2022 3.87864 26.004 4.70847 26.004 5.15859C26.004 5.94694 26.2325 6.70031 26.6384 7.34007C21.6896 8.04807 17.0997 10.3134 13.4604 13.8953C9.20892 18.0799 6.69714 23.6212 6.33356 29.5739H4.38959C3.07196 29.5743 2 30.6581 2 31.9904V33.0012C2 34.3338 3.07196 35.4177 4.38959 35.4177H13.2144C12.7739 35.7226 12.3517 36.0648 11.9565 36.4445L11.9403 36.46C11.9151 36.4838 11.8912 36.5093 11.8694 36.5365L7.98016 41.3115C7.49225 40.9984 6.91461 40.8843 6.34467 40.9949C5.75037 41.1098 5.23639 41.4519 4.89716 41.9582L3.36761 44.2386C2.66821 45.2818 2.93823 46.7069 3.96918 47.4149L14.4354 54.6039C14.8148 54.8644 15.2532 55 15.7022 55C15.8449 55 15.9889 54.9862 16.1324 54.9585C16.7263 54.8436 17.2403 54.5015 17.5795 53.9952L19.1091 51.7148C19.8085 50.6716 19.5389 49.2465 18.5079 48.5385L18.4481 48.4975C19.1766 47.6616 20.1477 47.0624 21.2043 46.8153C23.4307 46.2939 26.0505 46.6296 27.8275 46.9272C30.0256 47.2953 32.3345 47.1696 34.5045 46.5635L37.5208 45.7207C39.5302 45.1591 41.3793 44.2136 43.0173 42.9098C43.0297 42.8999 43.0417 42.89 43.0536 42.8792L48.2323 38.2419C49.115 37.559 49.3073 36.3762 49.0026 35.4177H55.6104C56.928 35.4177 58 34.3338 58 33.0016V31.9904C58 30.6581 56.928 29.5743 55.6104 29.5743ZM30 4.65663C31.3796 4.65663 32.2063 5.00178 32.3575 5.19358C32.3464 5.97934 31.9534 6.7042 31.3138 7.13876C31.1527 7.13012 30.9938 7.12321 30.8353 7.11717C30.7819 7.11544 30.7285 7.11285 30.675 7.11155C30.4465 7.10464 30.2209 7.10118 30 7.10118C29.8432 7.10118 29.6834 7.10334 29.5223 7.1068C29.4446 7.10809 29.3664 7.11025 29.2882 7.11285C29.1951 7.11587 29.1011 7.11889 29.0071 7.12278C28.8998 7.12753 28.7926 7.13228 28.6858 7.13833C28.0462 6.70376 27.6536 5.97891 27.6425 5.19358C27.7937 5.00178 28.6204 4.65663 30 4.65663ZM35.8746 35.8172C35.8135 35.6773 35.7405 35.5442 35.658 35.4177H43.5155L40.118 37.6911L35.2752 39.1076L35.1107 39.1115C36.043 38.3257 36.3831 36.984 35.8746 35.8172ZM26.9913 35.4177L25.8091 35.6669L24.8953 35.4177H26.9913ZM17.753 50.7852L16.2239 53.0656C16.1303 53.2056 15.9885 53.2997 15.8244 53.3317C15.6608 53.3632 15.4941 53.3287 15.3561 53.2336L4.88989 46.0447C4.60535 45.8494 4.53101 45.4563 4.72412 45.1687L6.25366 42.8878C6.34723 42.7483 6.48865 42.6537 6.65271 42.6222C6.69244 42.6144 6.73218 42.6105 6.77148 42.6105C6.89539 42.6105 7.0163 42.6481 7.12097 42.7202L7.68622 43.1081L17.5872 49.9087C17.8718 50.104 17.9461 50.4975 17.753 50.7852ZM47.227 36.9339C47.2073 36.9481 47.1885 36.9637 47.1702 36.9801L41.986 41.623C40.5244 42.782 38.8752 43.6235 37.0846 44.1237L34.0682 44.9665C32.126 45.5095 30.0607 45.6222 28.0958 45.2931C26.1808 44.9725 23.3456 44.6136 20.8347 45.2015C19.3804 45.5419 18.0525 46.3868 17.0865 47.5618L9.34351 42.2437L13.1016 37.6294C14.523 36.2725 16.3256 35.4669 18.0516 35.4177H18.085C18.6203 35.4086 19.1868 35.568 19.7863 35.7377C19.9067 35.7714 20.0268 35.8056 20.1473 35.8384L25.5716 37.3179C25.6959 37.3516 25.8262 37.3555 25.9523 37.3287L33.0565 35.8311C33.3787 35.7637 33.717 35.8298 33.9849 36.0133C34.158 36.1321 34.293 36.2954 34.3754 36.4851C34.619 37.0436 34.3895 37.6994 33.8452 37.9827L31.4214 39.2804C31.0861 39.4601 30.9169 39.8489 31.0121 40.2204C31.1078 40.5923 31.4424 40.8454 31.8226 40.8403L35.4179 40.7616C35.4893 40.7599 35.5598 40.7491 35.6277 40.7292L40.6935 39.2476C40.7734 39.2242 40.8491 39.1888 40.9183 39.1426L46.029 35.7222C46.4579 35.4544 47.0287 35.2341 47.3325 35.6872C47.5692 36.0397 47.5748 36.6743 47.227 36.9339Z" fill="black"/>
<path d="M33.3615 4.6001C32.8017 3.6001 31.1588 3.6001 30.0574 3.6001C28.4054 3.6001 27.2034 3.6001 26.6436 4.6001C26.0837 5.6001 27.304 6.76676 27.8547 7.6001L30 7.5L32.2601 7.6001C32.6273 6.93343 33.9213 5.6001 33.3615 4.6001Z" stroke="#FAC505" stroke-width="2.5"/>
</svg>
