<svg width="18" height="14" viewBox="0 0 18 14" fill="none" xmlns="http://www.w3.org/2000/svg">
<path fill-rule="evenodd" clip-rule="evenodd" d="M17.0771 2.02334C16.4788 2.29016 15.836 2.46975 15.1615 2.55138C15.85 2.1366 16.379 1.48 16.6279 0.697899C15.9834 1.08181 15.2695 1.36062 14.5096 1.51087C13.9014 0.860135 13.0341 0.454544 12.0748 0.454544C10.2328 0.454544 8.73894 1.95447 8.73894 3.80386C8.73894 4.0666 8.76816 4.3222 8.82532 4.56734C6.05249 4.42704 3.59418 3.09293 1.94913 1.06752C1.66204 1.5624 1.49754 2.13737 1.49754 2.75111C1.49754 3.91304 2.08645 4.93812 2.98126 5.53923C2.43503 5.52138 1.9203 5.37087 1.47061 5.11961V5.1617C1.47061 6.78534 2.62151 8.13859 4.14588 8.44661C3.86641 8.52314 3.5717 8.56395 3.2686 8.56395C3.05367 8.56395 2.84432 8.54354 2.64107 8.504C3.06535 9.83506 4.29756 10.8034 5.75714 10.8304C4.61539 11.7283 3.17689 12.264 1.61339 12.264C1.34408 12.264 1.0791 12.2487 0.818176 12.2173C2.29428 13.1678 4.04807 13.7224 5.93181 13.7224C12.0674 13.7224 15.4229 8.61803 15.4229 4.19223C15.4229 4.04683 15.4196 3.90271 15.4133 3.75858C16.0652 3.28667 16.631 2.69614 17.0781 2.02398" fill="white"/>
</svg>
